<?xml version="1.0" standalone="no"?><!-- Generator: Gravit.io --><svg xmlns="http://www.w3.org/2000/svg" xmlns:xlink="http://www.w3.org/1999/xlink" style="isolation:isolate" viewBox="0 0 64 64" width="64" height="64"><defs><clipPath id="_clipPath_GaNVoiDLI0500OhtP8NbydBnS1o8Tw9z"><rect width="64" height="64"/></clipPath></defs><g clip-path="url(#_clipPath_GaNVoiDLI0500OhtP8NbydBnS1o8Tw9z)"><clipPath id="_clipPath_afCq1vkRaig7XLjRO7LS8GLlUIloljyJ"><rect x="0" y="0" width="64" height="64" transform="matrix(1,0,0,1,0,0)" fill="rgb(255,255,255)"/></clipPath><g clip-path="url(#_clipPath_afCq1vkRaig7XLjRO7LS8GLlUIloljyJ)"><g id="Group"><g id="Group" style="opacity:0.2;"><g opacity="0.2"><path d=" M 32 5 C 16.536 5 4 17.536 4 33 C 4 48.464 16.536 61 32 61 C 47.464 61 60 48.464 60 33 C 60 17.536 47.464 5 32 5 Z " fill="rgb(0,0,0)"/></g></g><g id="quasar-logo-full"><g id="g4895-4-4"><g id="g5443-0-1-5-1-9"><g id="g8856-6-1-1-9-0-1-9"><path d=" M 4.002 31.999 C 4.002 16.546 16.549 3.999 32.002 3.999 C 47.456 3.999 60.002 16.546 60.002 31.999 C 60.002 47.453 47.456 59.999 32.002 59.999 C 16.549 59.999 4.002 47.453 4.002 31.999 Z " fill="rgb(25,118,210)"/><path d=" M 36.582 32.999 C 36.582 34.214 36.1 35.379 35.241 36.238 C 34.382 37.097 33.216 37.58 32.002 37.58 C 30.787 37.58 29.622 37.097 28.762 36.238 C 27.903 35.379 27.421 34.214 27.421 32.999 C 27.421 30.469 29.472 28.418 32.002 28.418 C 34.531 28.418 36.582 30.469 36.582 32.999 Z " fill="rgb(0,0,0)" fill-opacity="0.1"/><path d=" M 52.347 21.258 C 51.351 19.544 50.142 17.963 48.748 16.553 L 43.453 19.611 C 41.802 18.201 39.926 17.121 37.923 16.406 C 36.116 18.239 34.679 20.286 33.644 22.512 C 39.539 22.111 45.627 24.245 51.279 28.661 L 54.612 26.736 C 54.091 24.822 53.33 22.981 52.347 21.258 L 52.347 21.258 Z " fill="rgb(0,0,0)" fill-opacity="0.1"/><path d=" M 52.348 44.738 C 53.334 43.019 54.098 41.181 54.623 39.27 L 49.327 36.212 C 49.723 34.078 49.72 31.913 49.338 29.822 C 46.847 29.172 44.356 28.952 41.91 29.169 C 45.205 34.073 46.401 40.413 45.403 47.515 L 48.736 49.44 C 50.134 48.031 51.347 46.452 52.348 44.738 L 52.348 44.738 Z " fill="rgb(0,0,0)" fill-opacity="0.1"/><path d=" M 32.014 56.48 C 33.996 56.474 35.969 56.217 37.887 55.716 L 37.887 49.601 C 39.933 48.876 41.807 47.792 43.427 46.415 C 42.744 43.933 41.689 41.665 40.278 39.656 C 37.678 44.961 32.787 49.167 26.136 51.854 L 26.136 55.702 C 28.055 56.209 30.03 56.47 32.014 56.48 L 32.014 56.48 Z " fill="rgb(0,0,0)" fill-opacity="0.1"/><path d=" M 11.667 44.741 C 12.663 46.454 13.872 48.035 15.265 49.445 L 20.561 46.388 C 22.212 47.798 24.088 48.878 26.09 49.592 C 27.898 47.76 29.334 45.712 30.37 43.486 C 24.475 43.887 18.387 41.754 12.735 37.338 L 9.402 39.262 C 9.922 41.177 10.683 43.017 11.667 44.741 L 11.667 44.741 Z " fill="rgb(0,0,0)" fill-opacity="0.1"/><path d=" M 11.677 21.26 C 10.691 22.979 9.926 24.817 9.402 26.728 L 14.697 29.786 C 14.302 31.92 14.304 34.085 14.687 36.176 C 17.178 36.826 19.669 37.046 22.115 36.829 C 18.82 31.925 17.623 25.586 18.622 18.483 L 15.289 16.559 C 13.891 17.967 12.677 19.547 11.677 21.26 L 11.677 21.26 Z " fill="rgb(0,0,0)" fill-opacity="0.1"/><path d=" M 36.582 31.999 C 36.582 33.214 36.1 34.379 35.241 35.238 C 34.382 36.097 33.216 36.58 32.002 36.58 C 30.787 36.58 29.622 36.097 28.762 35.238 C 27.903 34.379 27.421 33.214 27.421 31.999 C 27.421 29.469 29.472 27.418 32.002 27.418 C 34.531 27.418 36.582 29.469 36.582 31.999 Z " fill="rgb(255,255,255)"/><path d=" M 52.347 20.258 C 51.351 18.544 50.142 16.963 48.748 15.553 L 43.453 18.611 C 41.802 17.201 39.926 16.121 37.923 15.406 C 36.116 17.239 34.679 19.286 33.644 21.512 C 39.539 21.111 45.627 23.245 51.279 27.661 L 54.612 25.736 C 54.091 23.822 53.33 21.981 52.347 20.258 L 52.347 20.258 Z " fill="rgb(255,255,255)"/><path d=" M 52.348 43.738 C 53.334 42.019 54.098 40.181 54.623 38.27 L 49.327 35.212 C 49.723 33.078 49.72 30.913 49.338 28.822 C 46.847 28.172 44.356 27.952 41.91 28.169 C 45.205 33.073 46.401 39.413 45.403 46.515 L 48.736 48.44 C 50.134 47.031 51.347 45.452 52.348 43.738 L 52.348 43.738 Z " fill="rgb(255,255,255)"/><path d=" M 32.014 55.48 C 33.996 55.474 35.969 55.217 37.887 54.716 L 37.887 48.601 C 39.933 47.876 41.807 46.792 43.427 45.415 C 42.744 42.933 41.689 40.665 40.278 38.656 C 37.678 43.961 32.787 48.167 26.136 50.854 L 26.136 54.702 C 28.055 55.209 30.03 55.47 32.014 55.48 L 32.014 55.48 Z " fill="rgb(255,255,255)"/><path d=" M 11.667 43.741 C 12.663 45.454 13.872 47.035 15.265 48.445 L 20.561 45.388 C 22.212 46.798 24.088 47.878 26.09 48.592 C 27.898 46.76 29.334 44.712 30.37 42.486 C 24.475 42.887 18.387 40.754 12.735 36.338 L 9.402 38.262 C 9.922 40.177 10.683 42.017 11.667 43.741 L 11.667 43.741 Z " fill="rgb(255,255,255)"/><path d=" M 11.677 20.26 C 10.691 21.979 9.926 23.817 9.402 25.728 L 14.697 28.786 C 14.302 30.92 14.304 33.085 14.687 35.176 C 17.178 35.826 19.669 36.046 22.115 35.829 C 18.82 30.925 17.623 24.586 18.622 17.483 L 15.289 15.559 C 13.891 16.967 12.677 18.547 11.677 20.26 L 11.677 20.26 Z " fill="rgb(255,255,255)"/><path d=" M 32.011 9.518 C 30.029 9.524 28.055 9.781 26.138 10.282 L 26.138 16.397 C 24.091 17.122 22.218 18.206 20.598 19.583 C 21.281 22.065 22.336 24.333 23.746 26.343 C 26.346 21.037 31.238 16.831 37.888 14.144 L 37.888 10.296 C 35.97 9.789 33.995 9.528 32.011 9.518 L 32.011 9.518 Z " fill="rgb(0,0,0)" fill-opacity="0.1"/><path d=" M 32.011 8.518 C 30.029 8.524 28.055 8.781 26.138 9.282 L 26.138 15.397 C 24.091 16.122 22.218 17.206 20.598 18.583 C 21.281 21.065 22.336 23.333 23.746 25.343 C 26.346 20.037 31.238 15.831 37.888 13.144 L 37.888 9.296 C 35.97 8.789 33.995 8.528 32.011 8.518 L 32.011 8.518 Z " fill="rgb(255,255,255)"/></g></g></g></g><g id="Group" style="opacity:0.2;"><g opacity="0.2"><path d=" M 32 4 C 16.536 4 4 16.536 4 32 C 4.006 32.135 4.013 32.271 4.021 32.406 C 4.344 17.183 16.773 5.008 32 5 C 47.292 5.01 59.748 17.288 59.979 32.578 C 59.988 32.385 59.995 32.193 60 32 C 60 16.536 47.464 4 32 4 Z " fill="rgb(255,255,255)"/></g></g></g></g></g></svg>