<svg xmlns="http://www.w3.org/2000/svg" width="256" height="256"><path fill-opacity=".016" d="M0 128.004v128.004l128.25-.254 128.25-.254.254-127.75L257.008 0H0v128.004m.485.496c0 70.4.119 99.053.265 63.672.146-35.38.146-92.98 0-128C.604 29.153.485 58.1.485 128.5" fill="#1976D2" fill-rule="evenodd"/><path fill-opacity=".414" d="M0 128.004v128.004l128.25-.254 128.25-.254.254-127.75L257.008 0H0v128.004m.485.496c0 70.4.119 99.053.265 63.672.146-35.38.146-92.98 0-128C.604 29.153.485 58.1.485 128.5m149.311-64.68C144.532 69.594 136 82.283 136 84.338c0 .364 2.416.662 5.369.662 12.328 0 29.785 4.558 43.112 11.256 4.87 2.447 14.272 8.345 20.869 13.089.73.525 3.694-.616 7.835-3.018l6.659-3.864-3.233-8.594c-3.506-9.322-10.259-20.775-16.392-27.801l-3.869-4.433-10.718 6.15-10.718 6.15-4.707-3.348c-4.654-3.31-11.073-6.825-15.621-8.554-1.913-.728-2.797-.398-4.79 1.787M54.55 68.661c-8.965 10.868-19.241 32.623-16.31 34.527.693.45 5.451 3.179 10.573 6.065l9.312 5.247-.632 6.843c-.348 3.763-.329 9.676.042 13.14l.675 6.298 5.645 1.088c8.978 1.729 21.783 2.525 22.481 1.397.339-.549-.712-3.451-2.335-6.449-7.733-14.277-11.232-29.582-11.204-49.008.01-6.98.298-13.964.64-15.52.579-2.639.184-3.081-5.864-6.559-3.566-2.052-6.719-3.73-7.007-3.73-.287 0-2.994 2.997-6.016 6.661m65.952 42.914c-4.509 2.351-6.594 4.51-8.621 8.925-2.335 5.085-2.332 9.927.009 15 2.136 4.628 5.422 7.917 9.425 9.433 4.166 1.579 11.401 1.296 15.4-.602 4.25-2.017 8.821-8.044 9.715-12.811.782-4.165-.874-10.931-3.618-14.783-4.315-6.061-15.585-8.668-22.31-5.162M158 162.28c-4.641 8.248-20.376 24.001-30.5 30.536-4.4 2.839-11.262 6.63-15.249 8.423l-7.249 3.261-.001 7.643c-.001 9.032-.72 8.5 13.64 10.104 9.745 1.089 26.642.116 31.702-1.825 1.418-.544 1.657-2.403 1.657-12.896v-12.259l4.931-2.05c2.712-1.127 7.69-3.922 11.062-6.212 5.803-3.941 6.097-4.333 5.491-7.334-.774-3.837-10.22-23.683-11.252-23.641-.402.016-2.307 2.829-4.232 6.25" fill="#1976D2" fill-rule="evenodd"/><path fill-opacity=".47" d="M0 128v128l60.75-.131c36.156-.079 57.96-.456 53.859-.931-50.772-5.892-92.862-40.482-108.013-88.766C-7.251 122.04 4.664 71.894 36.738 39.314 57.994 17.723 85.208 4.364 114.5 1.142 119.9.548 102.596.219 61.25.131L0 0v128M138.5.7c50.602 4.597 93.508 37.788 110.268 85.3 2.85 8.078 5.723 20.383 6.538 28 .205 1.925.446-22.937.534-55.25L256 0l-60.75.168C161.837.261 136.3.5 138.5.7m-20 15.937c-19.8 2.105-40.432 9.978-56.2 21.444-8.99 6.537-22.246 20.798-28.172 30.309-7.137 11.454-12.512 24.796-15.153 37.618-2.995 14.543-2.428 35.916 1.332 50.198 13.862 52.651 65.449 88.702 118.668 82.93 48.172-5.225 86.296-38.525 98.263-85.829 1.895-7.488 2.217-11.353 2.149-25.807-.07-14.986-.388-18.158-2.683-26.777-11.085-41.639-45.481-74.344-86.339-82.094-8.584-1.629-25.399-2.68-31.865-1.992M118 33.61c-1.375.261-4.862.938-7.75 1.503L105 36.142l-.009 12.179-.01 12.179-7.74 3.726c-4.258 2.05-9.416 5.11-11.464 6.8L82.055 74.1l2.347 6.236c2.553 6.783 6.616 15.069 8.844 18.037 1.306 1.738 1.807 1.271 7.012-6.553 9.924-14.915 27.077-29.231 44.3-36.975l7.44-3.345.001-7.667.001-7.667-5.25-1.146c-5.701-1.245-24.712-2.177-28.75-1.41m29 32.981c-4.408 5.383-11.991 17.176-11.997 18.659-.002.412 3.989.75 8.869.75 16.602 0 36.983 7.093 54.666 19.026l7.866 5.308 6.393-3.416c3.516-1.878 6.582-3.722 6.813-4.096.866-1.402-5.73-17.346-10.03-24.246C204.718 70.776 197.431 62 195.816 62c-.558 0-5.22 2.475-10.36 5.5-5.139 3.025-9.819 5.5-10.398 5.5-.579 0-3.22-1.557-5.868-3.459-4.844-3.48-14.829-8.555-16.69-8.483-.55.022-3.025 2.512-5.5 5.533M53.706 69.25c-8.71 11.023-18.441 31.469-16.066 33.759.473.457 5.1 3.272 10.282 6.256l9.423 5.426.077 12.571c.043 6.913.41 12.902.816 13.308 2.258 2.26 30.645 4.835 29.546 2.68-12.447-24.412-14.042-30.621-14.287-55.643l-.185-18.894-5.701-3.356C64.476 63.51 61.354 62 60.673 62s-3.816 3.263-6.967 7.25m68.931 41.192c-17.622 6.387-16.605 30.884 1.481 35.65 8.143 2.145 16.783-2.057 20.926-10.178 7.206-14.124-7.522-30.868-22.407-25.472m48.344 2.203c-1.216.33-.578 2.329 3.198 10.017 7.416 15.1 9.276 24.226 9.41 46.155l.112 18.316 5.789 3.487c3.183 1.918 6.375 3.262 7.093 2.987 2-.768 10.091-11.356 14.121-18.479 4.416-7.807 9.814-21.449 8.649-21.862-.469-.166-5.291-2.917-10.716-6.114l-9.863-5.813.164-12.675c.192-14.924 1.153-13.875-14.286-15.597-9.826-1.095-11.055-1.133-13.671-.422M255 142.435c0 9.759-6.024 29.684-13.285 43.94-19.15 37.601-56.69 63.686-98.56 68.486-5.129.588 12.226.921 52.595 1.008L256 256v-58.5c0-32.175-.225-58.5-.5-58.5s-.5 1.546-.5 3.435m-211.5 7.208c-3.3 1.963-6.126 3.685-6.28 3.827-.155.141 1.114 4.112 2.818 8.823 3.219 8.895 12.497 24.056 17.795 29.078l3.03 2.872 10.606-6.086 10.606-6.086 4.713 3.618c2.591 1.99 7.604 4.978 11.139 6.642l6.428 3.023 3.462-3.927c3.62-4.105 13.183-18.379 13.183-19.677 0-.412-2.812-.766-6.25-.785-17.929-.1-38.308-7.183-57.047-19.828-4.187-2.825-7.746-5.12-7.908-5.099-.162.02-2.995 1.643-6.295 3.605m116.466 8.439c-2.255 5.445-12.545 18.384-19.248 24.204-8.318 7.223-16.322 12.493-27.468 18.09L104 205.02v14.886l3.75 1.144c5.758 1.755 30.669 2.236 37.75.728l6-1.278.281-12.219.28-12.218 8.72-4.552c4.795-2.503 9.96-5.649 11.476-6.99l2.757-2.437-2.381-6.328c-2.936-7.799-6.796-15.5-9.349-18.654l-1.927-2.379-1.391 3.359" fill="#1976D2" fill-rule="evenodd"/><path fill-opacity=".897" d="M.127 59.75c.078 37.053.444 57.281.961 53.25C5.01 82.446 18.305 56.181 40.472 35.198 60.639 16.109 85.625 4.302 113.5.689 115.15.475 90.288.232 58.25.15L0 0l.127 59.75M146.48 1.115c53.797 7.834 98.357 50.564 107.913 103.482 1.317 7.293 1.434 3.564 1.517-48.347L256 0l-57.75.122c-37.183.078-55.62.432-51.77.993m-34.835 16.984C76.67 23.208 44.043 47.265 28.489 79.414c-17.113 35.373-14.524 76.402 6.911 109.538 6.059 9.366 19.882 23.61 29.086 29.973 10.257 7.091 24.231 13.602 36.014 16.78 9.142 2.466 11.544 2.695 28 2.673 16.321-.022 18.931-.274 27.977-2.701 12.472-3.346 27.747-10.741 38.089-18.438 43.763-32.571 57.43-92.048 32.272-140.439-16.067-30.905-45.37-52.279-79.764-58.182-9.975-1.712-25.685-1.942-35.429-.519m-1.145 16.26l-6 1.141-.279 12.682-.28 12.682-3.451 1.139C96.241 63.406 82 72.595 82 73.934 82 77.998 92.987 101 94.928 101c.456 0 1.43-1.449 2.163-3.221 2.304-5.561 12.783-18.547 19.735-24.454 8.553-7.269 18.392-13.632 27.804-17.98l7.449-3.442-.289-8.202-.29-8.201-5.5-1.154c-7.036-1.475-27.713-1.468-35.5.013M55.131 66.938c-6.839 8.218-12.542 18.065-16.084 27.771l-2.954 8.093 10.704 6.124L57.5 115.05l-.31 12.05c-.2 7.762.083 12.524.794 13.38 1.516 1.828 12.02 3.52 21.848 3.52 4.492 0 8.168-.152 8.168-.338 0-.186-2-4.348-4.444-9.25C75.615 118.487 72.269 100.493 73.438 80l.656-11.5-6.297-3.5c-3.463-1.925-6.597-3.638-6.964-3.806-.367-.168-2.933 2.417-5.702 5.744m90.327 1.291C140.817 74.161 135 83.665 135 85.317c0 .211 4.838.648 10.75.971 17.848.976 34.228 6.807 51.842 18.455l9.092 6.012 5.725-3.245c8.131-4.608 8.078-4.515 6.062-10.67-3.418-10.433-10.632-22.86-18.676-32.172l-3.31-3.832-10.738 6.161-10.739 6.162-6.9-4.587C160.995 63.843 155.168 61 152.589 61c-.811 0-4.02 3.253-7.131 7.229m-25.254 42.836c-10.907 5.559-14.027 18.923-6.671 28.567C124.246 153.678 147 145.899 147 128.19c0-10.257-6.925-17.858-17.142-18.813-4.226-.395-6.266-.039-9.654 1.688M169 112.714c0 .393 1.776 4.128 3.946 8.3 7.665 14.731 11.881 36.003 10.602 53.486-.362 4.95-.874 9.74-1.137 10.644-.349 1.201 1.481 2.774 6.784 5.832l7.263 4.187 2.361-2.832c6.253-7.502 11.697-15.428 14.65-21.331 3.789-7.576 7-16.865 6.129-17.735-.332-.333-4.956-3.154-10.274-6.269l-9.669-5.664-.077-12.582c-.043-6.92-.41-12.914-.816-13.32-2.256-2.258-29.762-4.768-29.762-2.716M.129 196.25L0 256l57.75-.116c31.763-.064 57.075-.248 56.25-.41-.825-.162-4.875-.84-9-1.508-15.625-2.528-33.608-9.963-48.992-20.254-10.62-7.104-27.393-24.235-34.751-35.493C10.703 182.073 3.54 162.66 1.173 143.796.54 138.746.218 154.893.129 196.25m254.516-46.887c-1.846 15.704-12.605 40.648-24.045 55.747-11.635 15.356-28.409 29.326-45.429 37.834-8.881 4.44-25.337 9.78-35.268 11.444-7.742 1.298-3.897 1.416 48.847 1.51L256 256v-56c0-30.8-.163-56-.362-56-.2 0-.646 2.413-.993 5.363m-211.895.26c-3.429 2.067-5.743 4.154-5.733 5.172.06 6.093 11.414 26.977 19.584 36.021l3.899 4.317 10.648-6.144 10.648-6.144 5.852 3.96c7.246 4.902 13.704 8.196 16.062 8.191.985-.002 3.876-2.589 6.426-5.75 4.562-5.655 11.856-17.029 11.861-18.496.002-.412-3.793-.75-8.432-.75-17.885 0-39.076-7.386-56.244-19.603-3.399-2.418-6.774-4.362-7.5-4.318-.727.043-3.908 1.638-7.071 3.544M158 161.18c-8.016 14.104-27.622 30.921-46.123 39.561l-7.951 3.713.287 8.002.287 8.003 5.5 1.347c7.198 1.764 29.807 1.763 37-.001l5.5-1.349.33-12.478.329-12.478 6.671-3.198c3.668-1.76 8.581-4.61 10.918-6.335 4.822-3.561 4.837-3.972.512-14.467-2.555-6.2-8.334-16.508-9.244-16.489-.284.006-2.091 2.782-4.016 6.169" fill="#1976D2" fill-rule="evenodd"/></svg>