<svg xmlns="http://www.w3.org/2000/svg" viewBox="0 0 596 120">
	<path fill="#00B4FF" d="M60 7.5a52.5 52.5 0 110 105 52.5 52.5 0 010-105M60 0a60 60 0 10.1 120.1A60 60 0 0060 0z" />
	<path fill="#050A14" d="M68.6 60a8.6 8.6 0 11-17.2 0 8.6 8.6 0 0117.2 0z" />
	<g fill="#050A14">
		<path
			d="M98.1 38a44 44 0 00-6.7-8.9l-10 5.8a33 33 0 00-10.3-6c-3.4 3.4-6 7.3-8 11.4 11-.7 22.4 3.3 33 11.6l6.3-3.6A44 44 0 0098 38zM60 104a44 44 0 0011-1.4V91.1a33 33 0 0010.4-6c-1.3-4.6-3.2-8.8-5.9-12.6-4.9 10-14 17.8-26.5 22.9v7.2a44 44 0 0011 1.4zM21.9 38a44 44 0 00-4.3 10.2l10 5.8c-.8 4-.8 8-.1 12 4.7 1.2 9.3 1.6 14 1.2C35.2 58 33 46 34.8 32.8l-6.3-3.6A44 44 0 0022 38z" />
	</g>
	<g fill="#00B4FF">
		<path
			d="M98.1 82a44 44 0 004.3-10.2l-10-5.8c.8-4 .8-8 .1-12a40.8 40.8 0 00-14-1.2C84.8 62 87 74 85.2 87.2l6.3 3.6A44 44 0 0098 82zM21.9 82a44 44 0 006.7 8.8l10-5.7a33 33 0 0010.3 6c3.4-3.4 6.1-7.3 8-11.4-11 .7-22.4-3.3-33-11.6l-6.3 3.6c1 3.6 2.4 7 4.3 10.3zM60 16a44 44 0 00-11 1.4v11.5a33 33 0 00-10.4 6c1.3 4.6 3.3 8.8 5.9 12.6 4.9-10 14-17.8 26.5-22.9v-7.2A44 44 0 0060 16z" />
	</g>
	<path fill="#050A14"
		d="M263 75.5v6c-12.7-1.2-21.4-8.1-21.4-24.8V31h6.5v25.6c0 12 5.5 17.6 15 18.8zM285.3 31v25.6c0 12.3-5.8 17.9-15 18.8v6c12.8-.8 21.5-7.7 21.5-24.8V31h-6.5zm-70 26.2v-3c0-17.8-12.1-24.3-29.1-24.3-16.9 0-28.8 6.5-28.8 24.2v3.1c0 17.8 11.9 24.4 28.8 24.4 2.1 0 4.2 0 6-.3l16.5 8.6 2.8-4.6-11.4-5.6-8.9-4.4c-1.6.2-3.3.3-5 .3-13.6 0-22.2-5.4-22.2-18.4v-3c0-13 8.6-18.3 22.2-18.3 13.7 0 22.6 5.3 22.6 18.2v3.1c0 7.3-2.8 12.1-7.7 15l6.7 3.3c4.7-3.9 7.6-9.8 7.6-18.3zm147.3 23.2h7.1l-24-50H339l23.6 50zm-34.8-14.9L338 43.8l-3.4-7.1-21 43.8h7.1l4.6-9.6h25.5l-2.5-5.3h-20.6zm186 14.9h7.2l-24-50h-6.7l23.6 50zM479 65.6l10.3-21.8-3.4-7.1-21 43.8h7.1l4.6-9.6H502l-2.5-5.3H479zm102.7-3.4c8.2-1.7 12.5-7.5 12.5-16 0-11-6.2-15.1-18-15.1h-29.7v49.4h6.3V37h23c7 0 11.9 1.8 11.9 9.2s-5 10.7-12 10.7H560v5.8h14.9l13 17.8h7.6l-13.7-18.3zM418.2 75.9c-13.4 0-20.4-3.4-25.8-8.8l-3.1 5.3c7.1 7 15.4 9.3 29.2 9.3 2.2 0 4.4-.1 6.5-.4l-2.7-5.6-4.1.2zm25.6-9.8c0-8.8-6.5-11.9-19.2-13l-14-1.4c-9.3-1-13-3-13-7.9 0-3.3 2-5.6 6.5-6.8l-2.5-5.3C395 33.7 391 37.5 391 44c0 7.3 4.8 12.2 18 13.5L425 59c9 1 12.4 3 12.4 7.6 0 3.7-3 6.5-8.3 8l2.5 5.4c7.3-2.1 12.3-6.5 12.3-13.9zm-28.3-30.4c11 0 18.7 2.5 25.3 8l2.6-5.5A41.7 41.7 0 00416 30c-2.8 0-5.5.1-7.9.4l2.6 5.5 4.8-.2z" />
</svg>