<?xml version="1.0" encoding="utf-8"?>
<!-- Generator: Adobe Illustrator 25.2.3, SVG Export Plug-In . SVG Version: 6.00 Build 0)  -->
<svg version="1.1" id="Layer_1" xmlns="http://www.w3.org/2000/svg" xmlns:xlink="http://www.w3.org/1999/xlink" x="0px" y="0px"
	 viewBox="0 0 1024 1024" style="enable-background:new 0 0 1024 1024;" xml:space="preserve">
<style type="text/css">
	.st0{fill:#FFFFFF;}
	.st1{fill:#00B4FF;}
</style>
<g>
	<path id="path8860-5-4-8-2-7-1-8_21_" class="st0" d="M586.2,512c0,41-33.2,74.2-74.2,74.2l0,0c-41,0-74.2-33.3-74.2-74.2l0,0
		c0-41,33.2-74.2,74.2-74.2S586.2,471,586.2,512z"/>
	<g>
		<path id="path8862-5-5-9-1-9-2-7_21_" class="st0" d="M841.3,321.8c-16.1-27.7-35.7-53.4-58.3-76.2l-85.7,49.5
			c-26.7-22.8-57.1-40.3-89.6-51.9c-29.3,29.6-52.6,62.8-69.3,98.9c95.5-6.5,194.1,28,285.6,99.6l53.9-31.1
			C869.6,379.6,857.2,349.7,841.3,321.8L841.3,321.8z"/>
		<path id="path8866-7-5-5-0-3-5-6_21_" class="st0" d="M512,892.3c32.1-0.1,64-4.2,95.2-12.4v-99c33.2-11.7,63.5-29.3,89.7-51.6
			c-11-40.2-28.2-76.9-51-109.5c-42.1,86-121.3,154-229,197.6v62.3C448,887.9,479.9,892.1,512,892.3z"/>
		<path id="path8870-5-3-9-3-0-0-9_21_" class="st0" d="M182.7,321.9c-16,27.8-28.4,57.6-36.8,88.6l85.7,49.5
			c-6.4,34.5-6.4,69.6-0.2,103.4C271.7,574,312,577.5,351.7,574c-53.4-79.4-72.8-182.1-56.6-297.1l-53.9-31.1
			C218.6,268.5,198.9,294.1,182.7,321.9z"/>
	</g>
	<g>
		<path id="path8864-4-8-1-2-7-3-1_21_" class="st1" d="M841.3,702.1c16-27.8,28.4-57.6,36.8-88.6L792.5,564
			c6.4-34.5,6.4-69.6,0.2-103.4c-40.3-10.6-80.6-14.1-120.3-10.6c53.4,79.4,72.8,182.1,56.6,297.1l53.9,31.1
			C805.5,755.5,825.2,729.8,841.3,702.1L841.3,702.1z"/>
		<path id="path8868-6-7-4-7-5-7-1_21_" class="st1" d="M182.7,702.1c16.1,27.7,35.7,53.4,58.3,76.2l85.7-49.5
			c26.7,22.8,57.1,40.3,89.6,51.9c29.3-29.6,52.6-62.8,69.3-98.9c-95.5,6.5-194.1-28-285.6-99.6L146,613.3
			C154.4,644.4,166.8,674.3,182.7,702.1L182.7,702.1z"/>
		<path id="path8872-6-3-2-1-4-2-1_21_" class="st1" d="M512,131.7c-32.1,0.1-64,4.2-95.2,12.4v99c-33.2,11.7-63.5,29.3-89.7,51.6
			c11,40.2,28.2,76.9,51,109.5c42.1-86,121.3-154,229-197.6v-62.3C576.2,136.1,544.1,131.9,512,131.7L512,131.7z"/>
	</g>
	<path class="st1" d="M512,66.4c245.7,0,445.6,199.9,445.6,445.6S757.7,957.6,512,957.6S66.4,757.7,66.4,512S266.3,66.4,512,66.4
		 M512,1C229.8,1,1,229.8,1,512s228.8,511,511,511s511-228.8,511-511S794.2,1,512,1L512,1z"/>
</g>
</svg>
