<?xml version="1.0" encoding="UTF-8" standalone="no"?>
<!-- Created with Inkscape (http://www.inkscape.org/) -->

<svg
   xmlns:dc="http://purl.org/dc/elements/1.1/"
   xmlns:cc="http://creativecommons.org/ns#"
   xmlns:rdf="http://www.w3.org/1999/02/22-rdf-syntax-ns#"
   xmlns:svg="http://www.w3.org/2000/svg"
   xmlns="http://www.w3.org/2000/svg"
   xmlns:sodipodi="http://sodipodi.sourceforge.net/DTD/sodipodi-0.dtd"
   xmlns:inkscape="http://www.inkscape.org/namespaces/inkscape"
   width="67.407623mm"
   height="9.7172642mm"
   viewBox="0 0 238.84591 34.431251"
   id="svg3585"
   version="1.1"
   inkscape:version="0.91 r13725"
   sodipodi:docname="quasar-logotype-inverted.svg">
  <defs
     id="defs3587" />
  <sodipodi:namedview
     id="base"
     pagecolor="#ffffff"
     bordercolor="#666666"
     borderopacity="1.0"
     inkscape:pageopacity="0.0"
     inkscape:pageshadow="2"
     inkscape:zoom="2.8"
     inkscape:cx="87.947549"
     inkscape:cy="22.763347"
     inkscape:document-units="px"
     inkscape:current-layer="flowRoot4513-6-6-08"
     showgrid="false"
     fit-margin-top="0"
     fit-margin-left="0"
     fit-margin-right="0"
     fit-margin-bottom="0"
     inkscape:window-width="1920"
     inkscape:window-height="1056"
     inkscape:window-x="0"
     inkscape:window-y="24"
     inkscape:window-maximized="1" />
  <metadata
     id="metadata3590">
    <rdf:RDF>
      <cc:Work
         rdf:about="">
        <dc:format>image/svg+xml</dc:format>
        <dc:type
           rdf:resource="http://purl.org/dc/dcmitype/StillImage" />
        <dc:title></dc:title>
      </cc:Work>
    </rdf:RDF>
  </metadata>
  <g
     inkscape:label="Layer 1"
     inkscape:groupmode="layer"
     id="layer1"
     transform="translate(-157.71995,-269.43229)">
    <g
       transform="translate(1269.4236,163.52289)"
       id="g4579-2-20">
      <g
         id="g4445-2-0"
         transform="translate(12.499948,7.809312)">
        <g
           inkscape:export-ydpi="44.860481"
           inkscape:export-xdpi="44.860481"
           inkscape:export-filename="/home/emanuele/Desktop/logo1.png"
           transform="translate(-712.85583,-503.26814)"
           id="g4561-6-7-0">
          <g
             transform="translate(16.233481,0)"
             style="font-style:normal;font-weight:normal;font-size:50.25774765px;line-height:125%;font-family:sans-serif;letter-spacing:0px;word-spacing:0px;fill:#263238;fill-opacity:1;stroke:none;stroke-width:1px;stroke-linecap:butt;stroke-linejoin:miter;stroke-opacity:1"
             id="flowRoot4513-6-6-08">
            <path
               d="m -402.73125,631.46823 q -0.6125,0.0438 -1.3125,0.0875 -0.65625,0 -1.4,0 l -9.31875,0 q -12.81875,0 -12.81875,-8.44375 l 0,-13.475 q 0,-8.26875 12.6,-8.26875 l 9.75625,0 q 12.6,0 12.6,8.26875 l 0,13.475 q 0,5.03125 -4.4625,7.04375 l 3.10625,2.14375 q 1.35625,0.83125 1.35625,1.70625 0,0.875 -0.7,1.3125 -0.65625,0.48125 -1.88125,0.48125 -0.30625,0 -0.7875,-0.13125 -0.4375,-0.0875 -1.05,-0.48125 l -5.6875,-3.71875 z m 5.38125,-21.74375 q 0,-4.76875 -7.9625,-4.76875 l -9.58125,0 q -7.9625,0 -7.9625,4.76875 l 0,13.3875 q 0,4.94375 8.3125,4.94375 l 8.88125,0 q 8.3125,0 8.3125,-4.94375 l 0,-13.3875 z"
               style="font-style:normal;font-variant:normal;font-weight:normal;font-stretch:normal;font-size:43.75px;font-family:'Neuropol X';-inkscape-font-specification:'Neuropol X';text-align:start;letter-spacing:5px;word-spacing:0px;text-anchor:start;fill:#ffffff;fill-opacity:1"
               id="path3705" />
            <path
               d="m -368.0585,631.64323 q -11.2875,0 -11.2875,-6.9125 l 0,-12.73125 q 0,-1.8375 2.31875,-1.8375 2.31875,0 2.31875,1.8375 l 0,12.775 q 0,3.325 6.475,3.325 l 8.3125,0 q 6.475,0 6.475,-3.325 l 0,-12.775 q 0,-1.8375 2.31875,-1.8375 2.3625,0 2.3625,1.8375 l 0,12.73125 q 0,6.9125 -11.2875,6.9125 l -8.00625,0 z"
               style="font-style:normal;font-variant:normal;font-weight:normal;font-stretch:normal;font-size:43.75px;font-family:'Neuropol X';-inkscape-font-specification:'Neuropol X';text-align:start;letter-spacing:5px;word-spacing:0px;text-anchor:start;fill:#ffffff;fill-opacity:1"
               id="path3707" />
            <path
               d="m -327.2833,631.64323 q -9.3625,0 -9.3625,-5.81875 l 0,-2.49375 q 0,-5.775 9.3625,-5.775 l 18.59375,0 0,-0.65625 q 0,-3.0625 -5.38125,-3.0625 l -6.16875,0 q -2.1875,0 -2.1875,-1.70625 0,-1.75 2.1875,-1.75 l 6.16875,0 q 9.93125,0 9.93125,6.51875 l 0,8.575 q 0,6.16875 -9.5375,6.16875 l -13.60625,0 z m 13.34375,-3.4125 q 5.25,0 5.25,-2.8875 l 0,-4.76875 -18.24375,0 q -5.11875,0 -5.11875,2.66875 l 0,2.275 q 0,2.7125 5.11875,2.7125 l 12.99375,0 z"
               style="font-style:normal;font-variant:normal;font-weight:normal;font-stretch:normal;font-size:43.75px;font-family:'Neuropol X';-inkscape-font-specification:'Neuropol X';text-align:start;letter-spacing:5px;word-spacing:0px;text-anchor:start;fill:#ffffff;fill-opacity:1"
               id="path3709" />
            <path
               d="m -262.77031,626.74323 q 0,4.9 -9.975,4.9 l -17.0625,0 q -2.1875,0 -2.1875,-1.70625 0,-1.70625 2.1875,-1.70625 l 17.0625,0 q 5.38125,0 5.38125,-1.4875 l 0,-2.45 q 0,-1.4875 -5.38125,-1.4875 l -9.0125,0 q -9.975,0 -9.975,-4.76875 l 0,-2.05625 q 0,-5.6 10.28125,-5.6 l 5.99375,0 q 2.23125,0 2.23125,1.75 0,0.875 -0.6125,1.3125 -0.56875,0.39375 -1.61875,0.39375 l -5.99375,0 q -5.73125,0 -5.73125,2.14375 l 0,1.925 q 0,1.79375 5.6875,1.79375 l 9.0125,0 q 9.7125,0 9.7125,4.4625 l 0,2.58125 z"
               style="font-style:normal;font-variant:normal;font-weight:normal;font-stretch:normal;font-size:43.75px;font-family:'Neuropol X';-inkscape-font-specification:'Neuropol X';text-align:start;letter-spacing:5px;word-spacing:0px;text-anchor:start;fill:#ffffff;fill-opacity:1"
               id="path3711" />
            <path
               d="m -241.91709,631.64323 q -9.3625,0 -9.3625,-5.81875 l 0,-2.49375 q 0,-5.775 9.3625,-5.775 l 18.59375,0 0,-0.65625 q 0,-3.0625 -5.38125,-3.0625 l -6.16875,0 q -2.1875,0 -2.1875,-1.70625 0,-1.75 2.1875,-1.75 l 6.16875,0 q 9.93125,0 9.93125,6.51875 l 0,8.575 q 0,6.16875 -9.5375,6.16875 l -13.60625,0 z m 13.34375,-3.4125 q 5.25,0 5.25,-2.8875 l 0,-4.76875 -18.24375,0 q -5.11875,0 -5.11875,2.66875 l 0,2.275 q 0,2.7125 5.11875,2.7125 l 12.99375,0 z"
               style="font-style:normal;font-variant:normal;font-weight:normal;font-stretch:normal;font-size:43.75px;font-family:'Neuropol X';-inkscape-font-specification:'Neuropol X';text-align:start;letter-spacing:5px;word-spacing:0px;text-anchor:start;fill:#ffffff;fill-opacity:1"
               id="path3713" />
            <path
               d="m -205.62285,617.33698 q 0,-6.95625 11.2875,-6.95625 l 3.36875,0 q 2.23125,0 2.23125,1.79375 0,1.79375 -2.23125,1.79375 l -3.54375,0 q -6.475,0 -6.475,3.28125 l 0,12.775 q 0,1.8375 -2.31875,1.8375 -2.31875,0 -2.31875,-1.8375 l 0,-12.6875 z"
               style="font-style:normal;font-variant:normal;font-weight:normal;font-stretch:normal;font-size:43.75px;font-family:'Neuropol X';-inkscape-font-specification:'Neuropol X';text-align:start;letter-spacing:5px;word-spacing:0px;text-anchor:start;fill:#ffffff;fill-opacity:1"
               id="path3715" />
          </g>
        </g>
      </g>
    </g>
  </g>
</svg>
