<svg xmlns="http://www.w3.org/2000/svg" xmlns:xlink="http://www.w3.org/1999/xlink" width="481.067" height="481.067" viewBox="0 0 451.00031 451.00031"><defs><linearGradient xlink:href="#a" id="b" gradientUnits="userSpaceOnUse" gradientTransform="scale(.18981) rotate(60 2806.385 3407.57)" x1="1424.321" y1="3186.665" x2="1218.037" y2="3392.949"/><linearGradient id="a"><stop offset="0" stop-color="#42a5f5"/><stop offset="1" stop-color="#1976d2"/></linearGradient><linearGradient xlink:href="#a" id="c" gradientUnits="userSpaceOnUse" gradientTransform="scale(-.18981) rotate(-60 -5682.375 3613.947)" x1="1424.321" y1="3186.665" x2="1218.037" y2="3392.949"/><linearGradient xlink:href="#a" id="d" gradientUnits="userSpaceOnUse" gradientTransform="matrix(-.18981 0 0 -.18981 655.46 1221.382)" x1="1424.321" y1="3186.665" x2="1218.037" y2="3392.949"/><linearGradient xlink:href="#a" id="e" gradientUnits="userSpaceOnUse" gradientTransform="scale(-.18981) rotate(60 5462.665 -2367.093)" x1="1424.321" y1="3186.665" x2="1218.037" y2="3392.949"/><linearGradient xlink:href="#a" id="f" gradientUnits="userSpaceOnUse" gradientTransform="scale(.18981) rotate(-60 646.77 3027.022)" x1="1424.321" y1="3186.665" x2="1218.037" y2="3392.949"/><linearGradient xlink:href="#a" id="g" gradientUnits="userSpaceOnUse" gradientTransform="matrix(.18981 0 0 .18981 41.704 -236.672)" x1="1424.321" y1="3186.665" x2="1218.037" y2="3392.949"/></defs><g transform="translate(-123.071 -266.862)"><circle cx="348.571" cy="492.362" r="225.5" fill="#fff"/><path d="M385.475 492.355a36.892 36.892 0 0 1-36.892 36.892 36.892 36.892 0 0 1-36.892-36.892 36.892 36.892 0 0 1 36.892-36.892 36.892 36.892 0 0 1 36.892 36.892z" fill="#35495e"/><path d="M512.347 397.793a189.112 189.112 0 0 0-28.98-37.886l-42.65 24.623a142.056 142.056 0 0 0-44.529-25.807c-14.56 14.756-26.127 31.245-34.465 49.177 47.475-3.231 96.507 13.95 142.025 49.514l26.842-15.497a189.112 189.112 0 0 0-18.243-44.124z" fill="url(#b)"/><path d="M512.357 586.898a189.112 189.112 0 0 0 18.321-44.04l-42.649-24.624a142.057 142.057 0 0 0 .085-51.467c-20.06-5.232-40.122-7.005-59.82-5.26 26.535 39.5 36.17 90.553 28.131 147.756l26.842 15.497a189.112 189.112 0 0 0 29.09-37.862z" fill="url(#c)"/><path d="M348.593 681.46a189.112 189.112 0 0 0 47.3-6.154V626.06a142.056 142.056 0 0 0 44.616-25.66c-5.5-19.988-13.996-38.25-25.356-54.436-20.94 42.73-60.336 76.602-113.894 98.24v30.994a189.112 189.112 0 0 0 47.334 6.263z" fill="url(#d)"/><path d="M184.818 586.917a189.112 189.112 0 0 0 28.98 37.887l42.65-24.624a142.056 142.056 0 0 0 44.528 25.808c14.561-14.757 26.128-31.245 34.466-49.177-47.475 3.23-96.507-13.951-142.026-49.515l-26.841 15.497a189.112 189.112 0 0 0 18.243 44.124z" fill="url(#e)"/><path d="M184.807 397.812a189.112 189.112 0 0 0-18.32 44.04l42.649 24.624a142.057 142.057 0 0 0-.086 51.467c20.06 5.232 40.123 7.005 59.821 5.26-26.535-39.5-36.17-90.553-28.131-147.755l-26.842-15.497a189.112 189.112 0 0 0-29.09 37.861z" fill="url(#f)"/><path d="M348.571 303.25a189.112 189.112 0 0 0-47.3 6.154v49.247a142.057 142.057 0 0 0-44.615 25.66c5.5 19.988 13.995 38.25 25.356 54.436 20.94-42.73 60.335-76.601 113.894-98.24v-30.994a189.112 189.112 0 0 0-47.335-6.263z" fill="url(#g)"/></g></svg>