<?xml version="1.0" standalone="no"?><!-- Generator: Gravit.io --><svg xmlns="http://www.w3.org/2000/svg" xmlns:xlink="http://www.w3.org/1999/xlink" style="isolation:isolate" viewBox="0 0 508.762 167.796" width="508.762" height="167.796"><defs><clipPath id="_clipPath_oatIe2rwo0bnIGw8k8EcfelfGiwYAoRT"><rect width="508.762" height="167.796"/></clipPath></defs><g clip-path="url(#_clipPath_oatIe2rwo0bnIGw8k8EcfelfGiwYAoRT)"><rect x="0" y="0" width="508.762" height="167.796" transform="matrix(1,0,0,1,0,0)" fill="none"/><g id="Group"><g id="g5519-9-0"><g id="g4636-5-7-7"><g id="g4768-9-1-2"><g id="g5443-0-1-3-9-3"><g id="g8856-6-1-1-9-9-3-3"><path d=" M 0 83.898 C 0 37.593 37.593 0 83.898 0 C 130.202 0 167.796 37.593 167.796 83.898 C 167.796 130.202 130.202 167.796 83.898 167.796 C 37.593 167.796 0 130.202 0 83.898 Z " fill="rgb(255,255,255)"/><path d=" M 97.628 83.895 C 97.628 87.536 96.182 91.027 93.608 93.601 C 91.034 96.175 87.543 97.621 83.902 97.621 C 80.262 97.621 76.771 96.175 74.197 93.601 C 71.623 91.027 70.176 87.536 70.177 83.895 C 70.177 76.315 76.322 70.17 83.902 70.17 C 91.483 70.17 97.628 76.315 97.628 83.895 Z " fill="rgb(38,50,56)"/><path d=" M 144.831 48.713 C 141.846 43.578 138.223 38.842 134.049 34.617 L 118.181 43.779 C 113.235 39.554 107.614 36.318 101.614 34.177 C 96.197 39.667 91.893 45.802 88.791 52.473 C 106.454 51.271 124.696 57.664 141.632 70.895 L 151.618 65.13 C 150.058 59.393 147.778 53.877 144.831 48.713 L 144.831 48.713 L 144.831 48.713 Z " fill="rgb(25,118,210)"/><path d=" M 144.835 119.07 C 147.789 113.918 150.08 108.412 151.651 102.685 L 135.783 93.524 C 136.969 87.128 136.961 80.642 135.815 74.375 C 128.352 72.429 120.887 71.769 113.559 72.418 C 123.431 87.114 127.016 106.109 124.025 127.391 L 134.012 133.157 C 138.2 128.937 141.837 124.204 144.835 119.07 L 144.835 119.07 L 144.835 119.07 Z " fill="rgb(66,165,245)"/><path d=" M 83.906 154.252 C 89.845 154.235 95.758 153.466 101.504 151.963 L 101.504 133.64 C 107.636 131.469 113.249 128.219 118.103 124.093 C 116.057 116.657 112.896 109.862 108.67 103.84 C 100.879 119.738 86.222 132.34 66.295 140.391 L 66.295 151.922 C 72.043 153.44 77.961 154.223 83.906 154.252 L 83.906 154.252 L 83.906 154.252 Z " fill="rgb(25,118,210)"/><path d=" M 22.973 119.077 C 25.958 124.212 29.58 128.948 33.755 133.173 L 49.623 124.012 C 54.569 128.237 60.19 131.473 66.19 133.614 C 71.607 128.123 75.911 121.989 79.013 115.317 C 61.35 116.519 43.107 110.127 26.172 96.895 L 16.186 102.661 C 17.745 108.398 20.026 113.914 22.973 119.077 L 22.973 119.077 L 22.973 119.077 Z " fill="rgb(66,165,245)"/><path d=" M 22.969 48.72 C 20.014 53.873 17.724 59.378 16.153 65.106 L 32.02 74.267 C 30.835 80.663 30.843 87.149 31.989 93.415 C 39.452 95.362 46.916 96.022 54.245 95.372 C 44.373 80.676 40.788 61.682 43.779 40.4 L 33.792 34.634 C 29.604 38.853 25.967 43.586 22.969 48.72 L 22.969 48.72 L 22.969 48.72 Z " fill="rgb(25,118,210)"/><path d=" M 83.898 13.538 C 77.959 13.556 72.046 14.325 66.3 15.828 L 66.3 34.15 C 60.168 36.321 54.555 39.571 49.701 43.697 C 51.747 51.134 54.908 57.928 59.134 63.95 C 66.925 48.052 81.582 35.45 101.509 27.4 L 101.509 15.868 C 95.76 14.351 89.843 13.568 83.898 13.538 L 83.898 13.538 L 83.898 13.538 Z " fill="rgb(66,165,245)"/></g></g></g></g></g><g id="Group"><g id="g4579-2-2-6-2"><g id="g4445-2-8-0-1"><g id="g4561-6-7-3-7-4"><g id="flowRoot4513-6-6-0-3-6"><g id="Group"><path d=" M 250.512 80.932 Q 249.762 80.986 248.904 81.039 Q 248.1 81.039 247.189 81.039 L 235.77 81.039 Q 220.063 81.039 220.063 70.693 L 220.063 54.182 Q 220.063 44.049 235.502 44.049 L 247.457 44.049 Q 262.896 44.049 262.896 54.182 L 262.896 70.693 Q 262.896 76.857 257.428 79.324 L 261.234 81.951 Q 262.896 82.969 262.896 84.041 Q 262.896 85.113 262.038 85.649 Q 261.234 86.238 259.733 86.238 Q 259.358 86.238 258.768 86.078 Q 258.232 85.97 257.481 85.488 L 250.512 80.932 L 250.512 80.932 Z  M 257.106 54.289 Q 257.106 48.445 247.349 48.445 L 235.609 48.445 Q 225.852 48.445 225.852 54.289 L 225.852 70.693 Q 225.852 76.75 236.038 76.75 L 246.921 76.75 Q 257.106 76.75 257.106 70.693 L 257.106 54.289 L 257.106 54.289 Z " fill="rgb(38,50,56)"/><path d=" M 292.205 81.147 Q 278.374 81.147 278.374 72.676 L 278.374 57.076 Q 278.374 54.825 281.215 54.825 Q 284.056 54.825 284.056 57.076 L 284.056 72.73 Q 284.056 76.803 291.99 76.803 L 302.176 76.803 Q 310.11 76.803 310.11 72.73 L 310.11 57.076 Q 310.11 54.825 312.951 54.825 Q 315.846 54.825 315.846 57.076 L 315.846 72.676 Q 315.846 81.147 302.015 81.147 L 292.205 81.147 L 292.205 81.147 Z " fill="rgb(38,50,56)"/><path d=" M 341.374 81.147 Q 329.902 81.147 329.902 74.017 L 329.902 70.961 Q 329.902 63.884 341.374 63.884 L 364.158 63.884 L 364.158 63.081 Q 364.158 59.328 357.564 59.328 L 350.005 59.328 Q 347.325 59.328 347.325 57.237 Q 347.325 55.093 350.005 55.093 L 357.564 55.093 Q 369.733 55.093 369.733 63.081 L 369.733 73.588 Q 369.733 81.147 358.047 81.147 L 341.374 81.147 L 341.374 81.147 Z  M 357.725 76.964 Q 364.158 76.964 364.158 73.427 L 364.158 67.583 L 341.803 67.583 Q 335.531 67.583 335.531 70.854 L 335.531 73.641 Q 335.531 76.964 341.803 76.964 L 357.725 76.964 L 357.725 76.964 Z " fill="rgb(38,50,56)"/><path d=" M 419.631 75.142 Q 419.631 81.147 407.408 81.147 L 386.501 81.147 Q 383.821 81.147 383.821 79.056 Q 383.821 76.964 386.501 76.964 L 407.408 76.964 Q 414.002 76.964 414.002 75.142 L 414.002 72.14 Q 414.002 70.318 407.408 70.318 L 396.365 70.318 Q 384.142 70.318 384.142 64.474 L 384.142 61.954 Q 384.142 55.093 396.74 55.093 L 404.084 55.093 Q 406.818 55.093 406.818 57.237 Q 406.818 58.308 406.068 58.846 Q 405.371 59.328 404.084 59.328 L 396.74 59.328 Q 389.717 59.328 389.717 61.954 L 389.717 64.314 Q 389.717 66.512 396.687 66.512 L 407.73 66.512 Q 419.631 66.512 419.631 71.98 L 419.631 75.142 L 419.631 75.142 Z " fill="rgb(38,50,56)"/><path d=" M 444.39 81.147 Q 432.917 81.147 432.917 74.017 L 432.917 70.961 Q 432.917 63.884 444.39 63.884 L 467.173 63.884 L 467.173 63.081 Q 467.173 59.328 460.579 59.328 L 453.021 59.328 Q 450.34 59.328 450.34 57.237 Q 450.34 55.093 453.021 55.093 L 460.579 55.093 Q 472.748 55.093 472.748 63.081 L 472.748 73.588 Q 472.748 81.147 461.062 81.147 L 444.39 81.147 L 444.39 81.147 Z  M 460.74 76.964 Q 467.173 76.964 467.173 73.427 L 467.173 67.583 L 444.819 67.583 Q 438.546 67.583 438.546 70.854 L 438.546 73.641 Q 438.546 76.964 444.819 76.964 L 460.74 76.964 Z " fill="rgb(38,50,56)"/><path d=" M 488.069 63.616 Q 488.069 55.093 501.9 55.093 L 506.028 55.093 Q 508.762 55.093 508.762 57.291 Q 508.762 59.488 506.028 59.488 L 501.685 59.488 Q 493.751 59.488 493.751 63.509 L 493.751 79.163 Q 493.751 81.415 490.91 81.415 Q 488.069 81.415 488.069 79.163 L 488.069 63.616 L 488.069 63.616 Z " fill="rgb(38,50,56)"/></g></g></g></g></g><g id="Group"><path d=" M 255.752 122.819 L 252.424 117.667 L 236.264 117.667 L 232.968 122.819 L 232.968 122.819 Q 232.36 123.747 231.304 123.747 L 231.304 123.747 L 231.304 123.747 Q 230.504 123.747 230.024 123.411 L 230.024 123.411 L 230.024 123.411 Q 229.544 123.075 229.544 122.435 L 229.544 122.435 L 229.544 122.435 Q 229.544 122.179 229.608 121.971 L 229.608 121.971 L 229.608 121.971 Q 229.672 121.763 229.896 121.443 L 229.896 121.443 L 242.568 102.147 L 242.568 102.147 Q 242.856 101.699 243.32 101.507 L 243.32 101.507 L 243.32 101.507 Q 243.784 101.315 244.328 101.283 L 244.328 101.283 L 244.328 101.283 Q 245.448 101.283 246.024 102.147 L 246.024 102.147 L 258.728 121.411 L 258.728 121.411 Q 258.984 121.731 259.064 121.955 L 259.064 121.955 L 259.064 121.955 Q 259.144 122.179 259.144 122.435 L 259.144 122.435 L 259.144 122.435 Q 259.144 123.075 258.664 123.411 L 258.664 123.411 L 258.664 123.411 Q 258.184 123.747 257.384 123.747 L 257.384 123.747 L 257.384 123.747 Q 256.36 123.747 255.752 122.819 L 255.752 122.819 Z  M 244.328 105.091 L 237.864 115.203 L 250.856 115.203 L 244.328 105.091 Z  M 286.832 101.283 L 286.832 101.283 L 286.832 101.283 Q 287.568 101.283 287.968 101.587 L 287.968 101.587 L 287.968 101.587 Q 288.368 101.891 288.624 102.403 L 288.624 102.403 L 296.112 118.787 L 302.48 102.339 L 302.48 102.339 Q 302.864 101.283 304.208 101.283 L 304.208 101.283 L 304.208 101.283 Q 304.976 101.283 305.456 101.635 L 305.456 101.635 L 305.456 101.635 Q 305.936 101.987 305.936 102.627 L 305.936 102.627 L 305.936 102.627 Q 305.936 102.787 305.904 102.979 L 305.904 102.979 L 305.904 102.979 Q 305.872 103.171 305.712 103.523 L 305.712 103.523 L 298.128 122.435 L 298.128 122.435 Q 297.808 123.139 297.424 123.443 L 297.424 123.443 L 297.424 123.443 Q 297.04 123.747 296.272 123.747 L 296.272 123.747 L 296.272 123.747 Q 295.44 123.747 295.024 123.411 L 295.024 123.411 L 295.024 123.411 Q 294.608 123.075 294.32 122.435 L 294.32 122.435 L 286.832 106.243 L 279.344 122.435 L 279.344 122.435 Q 279.056 123.075 278.64 123.411 L 278.64 123.411 L 278.64 123.411 Q 278.224 123.747 277.392 123.747 L 277.392 123.747 L 277.392 123.747 Q 276.624 123.747 276.24 123.443 L 276.24 123.443 L 276.24 123.443 Q 275.856 123.139 275.536 122.435 L 275.536 122.435 L 267.952 103.523 L 267.952 103.523 Q 267.792 103.171 267.76 102.979 L 267.76 102.979 L 267.76 102.979 Q 267.728 102.787 267.728 102.627 L 267.728 102.627 L 267.728 102.627 Q 267.728 101.987 268.192 101.635 L 268.192 101.635 L 268.192 101.635 Q 268.656 101.283 269.456 101.283 L 269.456 101.283 L 269.456 101.283 Q 270.16 101.283 270.56 101.539 L 270.56 101.539 L 270.56 101.539 Q 270.96 101.795 271.184 102.339 L 271.184 102.339 L 277.52 118.755 L 285.04 102.403 L 285.04 102.403 Q 285.296 101.891 285.68 101.587 L 285.68 101.587 L 285.68 101.587 Q 286.064 101.283 286.832 101.283 Z  M 338.36 123.587 L 325.208 123.587 L 325.208 123.587 Q 315.832 123.587 315.832 117.443 L 315.832 117.443 L 315.832 107.491 L 315.832 107.491 Q 315.832 101.443 325.048 101.443 L 325.048 101.443 L 329.624 101.443 L 329.624 101.443 Q 331.224 101.443 331.224 102.755 L 331.224 102.755 L 331.224 102.755 Q 331.224 104.067 329.624 104.067 L 329.624 104.067 L 325.112 104.067 L 325.112 104.067 Q 319.288 104.067 319.288 107.555 L 319.288 107.555 L 319.288 111.171 L 338.36 111.171 L 338.36 111.171 Q 339.896 111.171 339.896 112.419 L 339.896 112.419 L 339.896 112.419 Q 339.896 113.667 338.36 113.667 L 338.36 113.667 L 319.288 113.667 L 319.288 117.347 L 319.288 117.347 Q 319.288 120.963 325.368 120.963 L 325.368 120.963 L 338.36 120.963 L 338.36 120.963 Q 339.992 120.963 339.992 122.275 L 339.992 122.275 L 339.992 122.275 Q 339.992 123.587 338.36 123.587 L 338.36 123.587 Z  M 374.24 115.907 L 374.24 118.499 L 374.24 118.499 Q 374.24 123.587 364.512 123.587 L 364.512 123.587 L 351.52 123.587 L 351.52 123.587 Q 349.888 123.587 349.888 122.275 L 349.888 122.275 L 349.888 122.275 Q 349.888 120.963 351.52 120.963 L 351.52 120.963 L 364.512 120.963 L 364.512 120.963 Q 370.752 120.963 370.752 118.307 L 370.752 118.307 L 370.752 116.035 L 370.752 116.035 Q 370.752 113.443 364.832 113.443 L 364.832 113.443 L 358.784 113.443 L 358.784 113.443 Q 350.048 113.443 350.048 108.707 L 350.048 108.707 L 350.048 106.371 L 350.048 106.371 Q 350.048 101.443 359.008 101.443 L 359.008 101.443 L 362.592 101.443 L 362.592 101.443 Q 364.192 101.443 364.192 102.755 L 364.192 102.755 L 364.192 102.755 Q 364.192 104.067 362.592 104.067 L 362.592 104.067 L 359.04 104.067 L 359.04 104.067 Q 353.504 104.067 353.504 106.499 L 353.504 106.499 L 353.504 108.483 L 353.504 108.483 Q 353.504 110.851 358.752 110.851 L 358.752 110.851 L 364.576 110.851 L 364.576 110.851 Q 374.24 110.851 374.24 115.907 L 374.24 115.907 Z  M 406.728 117.347 L 406.728 107.619 L 406.728 107.619 Q 406.728 104.067 400.904 104.067 L 400.904 104.067 L 393.896 104.067 L 393.896 104.067 Q 388.072 104.067 388.072 107.619 L 388.072 107.619 L 388.072 117.347 L 388.072 117.347 Q 388.072 120.963 393.96 120.963 L 393.96 120.963 L 400.84 120.963 L 400.84 120.963 Q 406.728 120.963 406.728 117.347 L 406.728 117.347 Z  M 400.808 123.587 L 393.992 123.587 L 393.992 123.587 Q 384.616 123.587 384.616 117.443 L 384.616 117.443 L 384.616 107.555 L 384.616 107.555 Q 384.616 101.443 393.832 101.443 L 393.832 101.443 L 400.968 101.443 L 400.968 101.443 Q 410.184 101.443 410.184 107.555 L 410.184 107.555 L 410.184 117.443 L 410.184 117.443 Q 410.184 123.587 400.808 123.587 L 400.808 123.587 Z  M 452.752 122.403 L 452.752 107.139 L 440.56 122.883 L 440.56 122.883 Q 440.304 123.235 439.872 123.491 L 439.872 123.491 L 439.872 123.491 Q 439.44 123.747 438.768 123.747 L 438.768 123.747 L 438.768 123.747 Q 438.096 123.747 437.664 123.491 L 437.664 123.491 L 437.664 123.491 Q 437.232 123.235 436.976 122.883 L 436.976 122.883 L 424.848 107.171 L 424.848 122.403 L 424.848 122.403 Q 424.848 123.747 423.088 123.747 L 423.088 123.747 L 423.088 123.747 Q 421.392 123.747 421.392 122.403 L 421.392 122.403 L 421.392 102.755 L 421.392 102.755 Q 421.392 101.283 423.12 101.283 L 423.12 101.283 L 423.12 101.283 Q 423.856 101.283 424.304 101.539 L 424.304 101.539 L 424.304 101.539 Q 424.752 101.795 425.104 102.243 L 425.104 102.243 L 438.768 120.003 L 452.496 102.275 L 452.496 102.275 Q 452.848 101.827 453.28 101.555 L 453.28 101.555 L 453.28 101.555 Q 453.712 101.283 454.448 101.283 L 454.448 101.283 L 454.448 101.283 Q 456.208 101.283 456.208 102.755 L 456.208 102.755 L 456.208 122.403 L 456.208 122.403 Q 456.208 123.747 454.48 123.747 L 454.48 123.747 L 454.48 123.747 Q 452.752 123.747 452.752 122.403 L 452.752 122.403 Z  M 489.944 123.587 L 476.792 123.587 L 476.792 123.587 Q 467.416 123.587 467.416 117.443 L 467.416 117.443 L 467.416 107.491 L 467.416 107.491 Q 467.416 101.443 476.632 101.443 L 476.632 101.443 L 481.208 101.443 L 481.208 101.443 Q 482.808 101.443 482.808 102.755 L 482.808 102.755 L 482.808 102.755 Q 482.808 104.067 481.208 104.067 L 481.208 104.067 L 476.696 104.067 L 476.696 104.067 Q 470.872 104.067 470.872 107.555 L 470.872 107.555 L 470.872 111.171 L 489.944 111.171 L 489.944 111.171 Q 491.48 111.171 491.48 112.419 L 491.48 112.419 L 491.48 112.419 Q 491.48 113.667 489.944 113.667 L 489.944 113.667 L 470.872 113.667 L 470.872 117.347 L 470.872 117.347 Q 470.872 120.963 476.952 120.963 L 476.952 120.963 L 489.944 120.963 L 489.944 120.963 Q 491.576 120.963 491.576 122.275 L 491.576 122.275 L 491.576 122.275 Q 491.576 123.587 489.944 123.587 L 489.944 123.587 Z " fill-rule="evenodd" fill="rgb(255,87,34)"/></g></g></g></g></svg>