<?xml version="1.0" encoding="UTF-8" standalone="no"?>
<svg
   xmlns:dc="http://purl.org/dc/elements/1.1/"
   xmlns:cc="http://creativecommons.org/ns#"
   xmlns:rdf="http://www.w3.org/1999/02/22-rdf-syntax-ns#"
   xmlns:svg="http://www.w3.org/2000/svg"
   xmlns="http://www.w3.org/2000/svg"
   version="1.1"
   id="svg4418"
   viewBox="0 0 50.843461 50.843461"
   height="14.349154mm"
   width="14.349154mm">
  <defs
     id="defs4420" />
  <metadata
     id="metadata4423">
    <rdf:RDF>
      <cc:Work
         rdf:about="">
        <dc:format>image/svg+xml</dc:format>
        <dc:type
           rdf:resource="http://purl.org/dc/dcmitype/StillImage" />
        <dc:title></dc:title>
      </cc:Work>
    </rdf:RDF>
  </metadata>
  <g
     transform="translate(2.564585,-429.79762)"
     id="layer1">
    <g
       transform="matrix(0.01711901,0,0,0.01711901,-119.52778,478.52272)"
       id="g8856">
      <circle
         r="1485"
         cy="-1361.2571"
         cx="8317.3574"
         id="circle8858"
         style="opacity:1;fill:#263238;fill-opacity:1;stroke:none;stroke-width:50;stroke-linecap:square;stroke-linejoin:bevel;stroke-miterlimit:4;stroke-dasharray:none;stroke-opacity:1" />
      <path
         style="opacity:1;fill:#ffffff;fill-opacity:1;stroke:none;stroke-width:10;stroke-linecap:square;stroke-linejoin:bevel;stroke-miterlimit:4;stroke-dasharray:none;stroke-opacity:1"
         d="m 8560.3823,-1361.3029 a 242.947,242.947 0 0 1 -242.947,242.948 242.947,242.947 0 0 1 -242.947,-242.948 242.947,242.947 0 0 1 242.947,-242.946 242.947,242.947 0 0 1 242.947,242.946 z"
         id="path8860" />
      <path
         id="path8862"
         d="m 9395.8755,-1984.028 a 1245.372,1245.372 0 0 0 -190.8415,-249.4971 l -280.8618,162.1556 c -87.542,-74.7796 -187.0349,-132.0588 -293.2407,-169.9527 -95.8868,97.1766 -172.0602,205.7604 -226.9672,323.8487 312.6411,-21.2772 635.5313,91.8725 935.2898,326.0721 l 176.7612,-102.0532 a 1245.372,1245.372 0 0 0 -120.1398,-290.5734 z"
         clip-path="none"
         mask="none"
         style="fill:#ffffff;fill-opacity:1" />
      <path
         style="fill:#ffffff;fill-opacity:1"
         mask="none"
         clip-path="none"
         d="m 9395.9474,-738.70387 a 1245.372,1245.372 0 0 0 120.6501,-290.02213 l -280.8618,-162.1557 c 20.99,-113.2034 20.8488,-228.0063 0.563,-338.9302 -132.1008,-34.4521 -264.2238,-46.1283 -393.9448,-34.635 174.7471,260.1165 238.2017,596.32248 185.2582,973.02076 l 176.7612,102.05309 a 1245.372,1245.372 0 0 0 191.5741,-249.33082 z"
         id="path8864" />
      <path
         id="path8866"
         d="m 8317.501,-115.97954 a 1245.372,1245.372 0 0 0 311.4916,-40.52501 l 0,-324.31131 c 108.5321,-38.42382 207.8837,-95.94755 293.8037,-168.97752 -36.214,-131.6287 -92.1636,-251.88868 -166.9776,-358.48372 -137.894,281.39369 -397.3296,504.44998 -750.0316,646.9487 l 0,204.10623 a 1245.372,1245.372 0 0 0 311.7139,41.24263 z"
         clip-path="none"
         mask="none"
         style="fill:#ffffff;fill-opacity:1" />
      <path
         style="fill:#ffffff;fill-opacity:1"
         mask="none"
         clip-path="none"
         d="m 7238.9827,-738.57936 a 1245.372,1245.372 0 0 0 190.8415,249.49714 l 280.8618,-162.15566 c 87.5421,74.77965 187.0349,132.05879 293.2407,169.95271 95.8868,-97.17659 172.0602,-205.76036 226.9672,-323.8487 -312.6411,21.27714 -635.5313,-91.87254 -935.2898,-326.07203 l -176.7612,102.0531 a 1245.372,1245.372 0 0 0 120.1398,290.57344 z"
         id="path8868" />
      <path
         id="path8870"
         d="m 7238.9108,-1983.9035 a 1245.372,1245.372 0 0 0 -120.6501,290.0221 l 280.8618,162.1557 c -20.99,113.2035 -20.8488,228.0063 -0.563,338.9302 132.1008,34.4521 264.2238,46.1283 393.9448,34.635 -174.7471,-260.1165 -238.2017,-596.3225 -185.2582,-973.0207 l -176.7612,-102.0532 a 1245.372,1245.372 0 0 0 -191.5741,249.3309 z"
         clip-path="none"
         mask="none"
         style="fill:#ffffff;fill-opacity:1" />
      <path
         style="fill:#ffffff;fill-opacity:1"
         mask="none"
         clip-path="none"
         d="m 8317.3572,-2606.6279 a 1245.372,1245.372 0 0 0 -311.4915,40.525 l -1e-4,324.3113 c -108.5321,38.4239 -207.8837,95.9476 -293.8037,168.9776 36.214,131.6287 92.1637,251.8886 166.9776,358.4837 137.894,-281.3937 397.3296,-504.45 750.0316,-646.9487 l 1e-4,-204.1063 a 1245.372,1245.372 0 0 0 -311.714,-41.2426 z"
         id="path8872" />
    </g>
  </g>
</svg>
