<?xml version="1.0" encoding="UTF-8" standalone="no"?>
<svg id="svg4851" xmlns:rdf="http://www.w3.org/1999/02/22-rdf-syntax-ns#" xmlns="http://www.w3.org/2000/svg" viewBox="0 0 451.00031 451.00031" height="127.28mm" width="127.28mm" version="1.1" xmlns:cc="http://creativecommons.org/ns#" xmlns:xlink="http://www.w3.org/1999/xlink" xmlns:dc="http://purl.org/dc/elements/1.1/">
 <defs id="defs4853">
  <linearGradient id="linearGradient9266" y2="3392.9" xlink:href="#linearGradient6328" gradientUnits="userSpaceOnUse" y1="3186.7" gradientTransform="matrix(.094907 .16438 -.16438 .094907 826.5 -137.92)" x2="1218" x1="1424.3"/>
  <linearGradient id="linearGradient6328">
   <stop id="stop6330" stop-color="#42a5f5" offset="0"/>
   <stop id="stop6332" stop-color="#1976d2" offset="1"/>
  </linearGradient>
  <linearGradient id="linearGradient9268" y2="3392.9" xlink:href="#linearGradient6328" gradientUnits="userSpaceOnUse" y1="3186.7" gradientTransform="matrix(-.094907 .16438 -.16438 -.094907 1133.4 591.1)" x2="1218" x1="1424.3"/>
  <linearGradient id="linearGradient9270" y2="3392.9" xlink:href="#linearGradient6328" gradientUnits="userSpaceOnUse" y1="3186.7" gradientTransform="matrix(-.18981 0 0 -.18981 655.46 1221.4)" x2="1218" x1="1424.3"/>
  <linearGradient id="linearGradient9272" y2="3392.9" xlink:href="#linearGradient6328" gradientUnits="userSpaceOnUse" y1="3186.7" gradientTransform="matrix(-.094907 -.16438 .16438 -.094907 -129.33 1122.6)" x2="1218" x1="1424.3"/>
  <linearGradient id="linearGradient9274" y2="3392.9" xlink:href="#linearGradient6328" gradientUnits="userSpaceOnUse" y1="3186.7" gradientTransform="matrix(.094907 -.16438 .16438 .094907 -436.21 393.61)" x2="1218" x1="1424.3"/>
  <linearGradient id="linearGradient9276" y2="3392.9" xlink:href="#linearGradient6328" gradientUnits="userSpaceOnUse" y1="3186.7" gradientTransform="matrix(.18981 0 0 .18981 41.704 -236.67)" x2="1218" x1="1424.3"/>
 </defs>
 <g id="layer1" transform="translate(-123.07 -266.86)">
  <g id="g5462">
   <circle id="circle8858-1" cy="492.36" cx="348.57" r="225.5" fill="#fff"/>
   <path id="path8860-5" d="m385.48 492.36a36.892 36.892 0 0 1 -36.892 36.892 36.892 36.892 0 0 1 -36.892 -36.892 36.892 36.892 0 0 1 36.892 -36.892 36.892 36.892 0 0 1 36.892 36.892z" fill="#35495e"/>
   <path id="path8862-5" d="m512.35 397.79a189.11 189.11 0 0 0 -28.98 -37.88l-42.649 24.624c-13.293-11.355-28.402-20.053-44.529-25.808-14.561 14.756-26.128 31.245-34.465 49.177 47.475-3.231 96.507 13.951 142.03 49.515l26.842-15.497a189.11 189.11 0 0 0 -18.243 -44.124z" fill="url(#linearGradient9266)"/>
   <path id="path8864-4" d="m512.36 586.9a189.11 189.11 0 0 0 18.321 -44.04l-42.649-24.624c3.1874-17.19 3.1659-34.623 0.0855-51.467-20.06-5.2316-40.123-7.0047-59.821-5.2594 26.536 39.499 36.171 90.553 28.132 147.76l26.842 15.497a189.11 189.11 0 0 0 29.091 -37.861z" fill="url(#linearGradient9268)"/>
   <path id="path8866-7" d="m348.59 681.46a189.11 189.11 0 0 0 47.301 -6.1538v-49.247c16.481-5.8347 31.568-14.57 44.615-25.66-5.4992-19.988-13.995-38.25-25.356-54.436-20.939 42.73-60.335 76.602-113.89 98.24v30.994a189.11 189.11 0 0 0 47.334 6.2628z" fill="url(#linearGradient9270)"/>
   <path id="path8868-6" d="m184.82 586.92a189.11 189.11 0 0 0 28.98 37.887l42.649-24.624c13.293 11.355 28.402 20.053 44.529 25.808 14.561-14.756 26.128-31.245 34.465-49.177-47.475 3.231-96.507-13.951-142.03-49.515l-26.842 15.497a189.11 189.11 0 0 0 18.243 44.124z" fill="url(#linearGradient9272)"/>
   <path id="path8870-5" d="m184.81 397.81a189.11 189.11 0 0 0 -18.321 44.04l42.649 24.624c-3.1874 17.19-3.1659 34.623-0.0855 51.467 20.06 5.2316 40.123 7.0047 59.821 5.2594-26.536-39.499-36.171-90.553-28.132-147.76l-26.842-15.497a189.11 189.11 0 0 0 -29.091 37.861z" fill="url(#linearGradient9274)"/>
   <path id="path8872-6" d="m348.57 303.25a189.11 189.11 0 0 0 -47.301 6.1538l-0.00002 49.247c-16.481 5.8348-31.568 14.57-44.615 25.66 5.4992 19.988 13.995 38.25 25.356 54.436 20.939-42.73 60.335-76.602 113.89-98.24l0.00001-30.994a189.11 189.11 0 0 0 -47.33 -6.27z" fill="url(#linearGradient9276)"/>
  </g>
 </g>
</svg>
