<svg xmlns="http://www.w3.org/2000/svg" viewBox="0 0 50.843461 50.843461" height="54.233" width="54.233">
    <g transform="matrix(.01712 0 0 .01712 -116.963 48.725)">
        <circle r="1485" cy="-1361.257" cx="8317.357" fill="#263238"/>
        <path d="M8560.382-1361.303a242.947 242.947 0 0 1-242.947 242.948 242.947 242.947 0 0 1-242.947-242.948 242.947 242.947 0 0 1 242.947-242.946 242.947 242.947 0 0 1 242.947 242.946zM9395.876-1984.028a1245.372 1245.372 0 0 0-190.842-249.497l-280.862 162.156c-87.542-74.78-187.035-132.06-293.24-169.953-95.887 97.176-172.06 205.76-226.968 323.849 312.641-21.278 635.532 91.872 935.29 326.072l176.761-102.054a1245.372 1245.372 0 0 0-120.14-290.573zM9395.947-738.704a1245.372 1245.372 0 0 0 120.65-290.022l-280.861-162.156c20.99-113.203 20.848-228.006.563-338.93-132.101-34.452-264.224-46.128-393.945-34.635 174.747 260.117 238.202 596.323 185.258 973.02l176.761 102.054a1245.372 1245.372 0 0 0 191.574-249.33zM8317.501-115.98a1245.372 1245.372 0 0 0 311.492-40.525v-324.31c108.532-38.425 207.883-95.948 293.803-168.978-36.214-131.63-92.163-251.89-166.977-358.484-137.894 281.394-397.33 504.45-750.032 646.949v204.106a1245.372 1245.372 0 0 0 311.714 41.242zM7238.983-738.58a1245.372 1245.372 0 0 0 190.841 249.498l280.862-162.156c87.542 74.78 187.035 132.059 293.24 169.953 95.887-97.177 172.06-205.76 226.968-323.849-312.641 21.277-635.531-91.872-935.29-326.072l-176.761 102.053a1245.372 1245.372 0 0 0 120.14 290.574zM7238.91-1983.903a1245.372 1245.372 0 0 0-120.65 290.022l280.862 162.155c-20.99 113.204-20.848 228.007-.563 338.93 132.101 34.453 264.224 46.129 393.945 34.636-174.747-260.117-238.201-596.323-185.258-973.021l-176.761-102.053a1245.372 1245.372 0 0 0-191.574 249.33zM8317.357-2606.628a1245.372 1245.372 0 0 0-311.491 40.525v324.311c-108.532 38.424-207.884 95.948-293.804 168.978 36.214 131.629 92.164 251.889 166.977 358.484 137.895-281.394 397.33-504.45 750.032-646.949v-204.106a1245.372 1245.372 0 0 0-311.714-41.243z" fill="#fff"/>
    </g>
</svg>
