<?xml version="1.0" encoding="UTF-8" standalone="no"?>
<!-- Created with Inkscape (http://www.inkscape.org/) -->

<svg
   xmlns:dc="http://purl.org/dc/elements/1.1/"
   xmlns:cc="http://creativecommons.org/ns#"
   xmlns:rdf="http://www.w3.org/1999/02/22-rdf-syntax-ns#"
   xmlns:svg="http://www.w3.org/2000/svg"
   xmlns="http://www.w3.org/2000/svg"
   xmlns:sodipodi="http://sodipodi.sourceforge.net/DTD/sodipodi-0.dtd"
   xmlns:inkscape="http://www.inkscape.org/namespaces/inkscape"
   width="51.390125mm"
   height="51.390125mm"
   viewBox="0 0 182.09099 182.09099"
   id="svg3420"
   version="1.1"
   inkscape:version="0.91 r13725"
   sodipodi:docname="quasar-play-logo.svg">
  <defs
     id="defs3422" />
  <sodipodi:namedview
     id="base"
     pagecolor="#ffffff"
     bordercolor="#666666"
     borderopacity="1.0"
     inkscape:pageopacity="0.0"
     inkscape:pageshadow="2"
     inkscape:zoom="1.4"
     inkscape:cx="60.475103"
     inkscape:cy="-6.701264"
     inkscape:document-units="px"
     inkscape:current-layer="g3782"
     showgrid="false"
     fit-margin-top="0"
     fit-margin-left="0"
     fit-margin-right="0"
     fit-margin-bottom="0"
     inkscape:window-width="1920"
     inkscape:window-height="1056"
     inkscape:window-x="0"
     inkscape:window-y="24"
     inkscape:window-maximized="1" />
  <metadata
     id="metadata3425">
    <rdf:RDF>
      <cc:Work
         rdf:about="">
        <dc:format>image/svg+xml</dc:format>
        <dc:type
           rdf:resource="http://purl.org/dc/dcmitype/StillImage" />
        <dc:title></dc:title>
      </cc:Work>
    </rdf:RDF>
  </metadata>
  <g
     inkscape:label="Layer 1"
     inkscape:groupmode="layer"
     id="layer1"
     transform="translate(716.75978,326.01083)">
    <g
       transform="translate(-997.76153,-435.70167)"
       id="g3782">
      <g
         id="g4803"
         transform="matrix(0.37179714,0,0,0.37179714,941.11531,830.23437)">
        <circle
           r="244.8795"
           inkscape:export-ydpi="10.031387"
           inkscape:export-xdpi="10.031387"
           style="opacity:1;fill:#ffffff;fill-opacity:1;stroke:none;stroke-width:50;stroke-linecap:square;stroke-linejoin:bevel;stroke-miterlimit:4;stroke-dasharray:none;stroke-opacity:1"
           id="circle8858-1-2"
           cx="-1530.5875"
           cy="-1693.1223" />
        <path
           inkscape:transform-center-y="-407.84388"
           inkscape:transform-center-x="-472.13875"
           inkscape:connector-curvature="0"
           style="fill:#1976d2;fill-opacity:1"
           mask="none"
           clip-path="none"
           d="m -1352.7376,-1795.8185 a 205.36435,205.36435 0 0 0 -31.4702,-41.1425 l -46.3146,26.7398 c -14.4359,-12.3313 -30.8425,-21.7768 -48.3561,-28.0256 -15.8119,16.0246 -28.3731,33.9303 -37.4273,53.4034 51.5552,-3.5087 104.8004,15.1499 154.2312,53.7699 l 29.1482,-16.8288 a 205.36435,205.36435 0 0 0 -19.8112,-47.9162 z"
           id="path8862-5-0" />
        <path
           id="path8864-4-9"
           d="m -1352.7258,-1590.462 a 205.36435,205.36435 0 0 0 19.8954,-47.8252 l -46.3146,-26.7398 c 3.4613,-18.6675 3.438,-37.5987 0.092,-55.8903 -21.7837,-5.6812 -43.5711,-7.6066 -64.9624,-5.7113 28.8162,42.8936 39.28,98.3347 30.5495,160.453 l 29.1484,16.8288 a 205.36435,205.36435 0 0 0 31.5909,-41.1152 z"
           clip-path="none"
           mask="none"
           style="fill:#42a5f5;fill-opacity:1"
           inkscape:connector-curvature="0"
           inkscape:transform-center-x="-633.41191"
           inkscape:transform-center-y="244.13161" />
        <path
           inkscape:transform-center-y="587.21559"
           inkscape:transform-center-x="-107.91124"
           inkscape:connector-curvature="0"
           style="fill:#1976d2;fill-opacity:1"
           mask="none"
           clip-path="none"
           d="m -1530.5637,-1487.7735 a 205.36435,205.36435 0 0 0 51.3655,-6.6826 l 0,-53.4796 c 17.8972,-6.3361 34.2805,-15.822 48.4488,-27.8647 -5.9717,-21.7059 -15.1979,-41.537 -27.5349,-59.1148 -22.739,46.4024 -65.5205,83.1848 -123.6817,106.6832 l 0,33.6575 a 205.36435,205.36435 0 0 0 51.4023,6.801 z"
           id="path8866-7-3" />
        <path
           id="path8868-6-6"
           d="m -1708.4136,-1590.4414 a 205.36435,205.36435 0 0 0 31.4701,41.1425 l 46.3147,-26.7397 c 14.4359,12.3313 30.8425,21.7767 48.3559,28.0254 15.812,-16.0245 28.3732,-33.9302 37.4275,-53.4032 -51.5552,3.5086 -104.8004,-15.1499 -154.2312,-53.7699 l -29.1483,16.8287 a 205.36435,205.36435 0 0 0 19.8113,47.9162 z"
           clip-path="none"
           mask="none"
           style="fill:#42a5f5;fill-opacity:1"
           inkscape:connector-curvature="0"
           inkscape:transform-center-x="472.13876"
           inkscape:transform-center-y="407.8439" />
        <path
           inkscape:transform-center-y="-244.13166"
           inkscape:transform-center-x="633.41193"
           inkscape:connector-curvature="0"
           style="fill:#1976d2;fill-opacity:1"
           mask="none"
           clip-path="none"
           d="m -1708.4255,-1795.7979 a 205.36435,205.36435 0 0 0 -19.8954,47.8252 l 46.3147,26.7398 c -3.4613,18.6675 -3.438,37.5987 -0.092,55.8903 21.7836,5.6812 43.571,7.6066 64.9622,5.7114 -28.8161,-42.8938 -39.2799,-98.3348 -30.5494,-160.4531 l -29.1483,-16.8288 a 205.36435,205.36435 0 0 0 -31.5909,41.1152 z"
           id="path8870-5-0" />
        <path
           id="path8872-6-6"
           d="m -1530.5875,-1898.4865 a 205.36435,205.36435 0 0 0 -51.3656,6.6827 l 0,53.4796 c -17.8971,6.3362 -34.2804,15.8219 -48.4488,27.8648 5.9718,21.7059 15.198,41.5369 27.5349,59.1147 22.7391,-46.4025 65.5204,-83.1849 123.6817,-106.6832 l 1e-4,-33.6576 a 205.36435,205.36435 0 0 0 -51.4023,-6.801 z"
           clip-path="none"
           mask="none"
           style="fill:#42a5f5;fill-opacity:1"
           inkscape:connector-curvature="0"
           inkscape:transform-center-x="107.91122"
           inkscape:transform-center-y="-587.21562" />
        <path
           id="path4375"
           d="m -1473.7602,-1693.0895 -97.8476,56.4582 0,-112.9821 z"
           class="st1"
           style="fill:#ff5722;fill-opacity:1"
           inkscape:connector-curvature="0" />
      </g>
    </g>
  </g>
</svg>
