<svg xmlns="http://www.w3.org/2000/svg" id="Layer_1" x="0" y="0" version="1.1" viewBox="0 0 1024 1024"
	xml:space="preserve">
	<style>
		.st1 {
			fill: #fff
		}

		.st2 {
			fill: #00b4ff
		}
	</style>
	<path fill="#050a14" d="M0 0h1024v1024H0z" />
	<path id="path8860-5-4-8-2-7-1-8_21_" d="M577.3 512a65.3 65.3 0 01-130.6 0 65.3 65.3 0 11130.6 0z" class="st1" />
	<path id="path8862-5-5-9-1-9-2-7_21_"
		d="M802 344.5a334.4 334.4 0 00-51.3-67.1L675.2 321a251.2 251.2 0 00-78.9-45.7 307.2 307.2 0 00-61 87.1c84.1-5.7 170.9 24.7 251.5 87.7l47.5-27.4a336 336 0 00-32.3-78.2z"
		class="st1" />
	<path id="path8866-7-5-5-0-3-5-6_21_"
		d="M512 846.9a334 334 0 0083.8-10.9v-87.2a251.3 251.3 0 0079-45.4 309.8 309.8 0 00-44.9-96.4c-37.1 75.7-106.8 135.6-201.7 174v54.9a343.5 343.5 0 0083.8 11z"
		class="st1" />
	<path id="path8870-5-3-9-3-0-0-9_21_"
		d="M222 344.6a328.8 328.8 0 00-32.4 78l75.5 43.6a253.6 253.6 0 00-.2 91.1c35.5 9.3 71 12.4 105.9 9.3-47-69.9-64.1-160.4-49.8-261.6l-47.5-27.4a332.8 332.8 0 00-51.5 67z"
		class="st1" />
	<g>
		<path id="path8864-4-8-1-2-7-3-1_21_"
			d="M802 679.4c14.1-24.5 25-50.7 32.4-78L759 557.8c5.6-30.4 5.6-61.3.2-91.1-35.5-9.3-71-12.4-105.9-9.3 47 69.9 64.1 160.4 49.8 261.6l47.5 27.4c19.9-20 37.2-42.6 51.4-67z"
			class="st2" />
		<path id="path8868-6-7-4-7-5-7-1_21_"
			d="M222 679.4c14.2 24.4 31.4 47 51.3 67.1l75.5-43.6a251.2 251.2 0 0078.9 45.7 307.2 307.2 0 0061-87.1c-84.1 5.7-170.9-24.7-251.5-87.7l-47.5 27.4a332.4 332.4 0 0032.3 78.2z"
			class="st2" />
		<path id="path8872-6-3-2-1-4-2-1_21_"
			d="M512 177.1a334 334 0 00-83.8 10.9v87.2a251.3 251.3 0 00-79 45.4 309.8 309.8 0 0044.9 96.4c37.1-75.7 106.8-135.6 201.7-174v-54.9a342.9 342.9 0 00-83.8-11z"
			class="st2" />
	</g>
	<path
		d="M512 119.6c216.4 0 392.4 176 392.4 392.4S728.4 904.4 512 904.4 119.6 728.4 119.6 512s176-392.4 392.4-392.4m0-57.6a450 450 0 100 900 450 450 0 000-900z"
		class="st2" />
</svg>