<svg xmlns="http://www.w3.org/2000/svg" viewBox="0 0 440 60.3">
	<path fill="#fff"
		d="M105.7 45.5v6C93 50.3 84.2 43.4 84.2 26.7V1.1h6.5v25.6c0 12 5.6 17.6 15 18.8zm22.2-44.4v25.6c0 12.3-5.8 17.8-15 18.8v6c12.8-.9 21.5-7.8 21.5-24.9V1.1h-6.5zm-70 26.2v-3.1C57.9 6.5 45.7 0 28.7 0 11.9 0 0 6.5 0 24.2v3.1c0 17.8 11.9 24.4 28.7 24.4 2.1 0 4.2-.1 6.1-.3L51.2 60l2.8-4.6-11.4-5.6-8.9-4.3c-1.6.2-3.3.3-5 .3-13.5 0-22.2-5.4-22.2-18.4v-3.1C6.6 11.3 15.2 6 28.7 6c13.8 0 22.7 5.3 22.7 18.3v3.1c0 7.3-2.9 12.1-7.7 15l6.7 3.3c4.7-4 7.5-9.9 7.5-18.4zm147.2 23.2h7.1L188.2.6h-6.7l23.6 49.9zm-34.7-14.9l10.3-21.9-3.3-7.1-21.1 43.8h7.1l4.6-9.6h25.5l-2.5-5.2h-20.6zm186 14.9h7.1L339.5.6h-6.7l23.6 49.9zm-34.7-14.9L332 13.7l-3.3-7.1-21.1 43.8h7.1l4.6-9.6h25.5l-2.5-5.2h-20.6zm102.7-3.4c8.2-1.7 12.5-7.5 12.5-16 0-11-6.3-15.1-18-15.1h-29.8v49.4h6.3V7h23c7 0 11.9 1.8 11.9 9.2s-4.9 10.7-11.9 10.7h-15.8v5.7h14.9l13 17.8h7.6l-13.7-18.2zM260.8 45.9c-13.4 0-20.4-3.4-25.8-8.8l-3.1 5.3c7.1 6.9 15.5 9.3 29.2 9.3 2.2 0 4.4-.1 6.5-.4l-2.6-5.6-4.2.2zm25.7-9.8c0-8.8-6.6-11.9-19.2-13l-14.1-1.4c-9.2-1-12.9-3.1-12.9-7.9 0-3.4 2-5.6 6.4-6.9l-2.5-5.3c-6.6 2-10.5 5.8-10.5 12.3 0 7.3 4.8 12.2 18 13.5l15.8 1.5c9 1 12.4 2.9 12.4 7.6 0 3.7-2.9 6.5-8.3 8l2.6 5.5c7.3-2.1 12.3-6.5 12.3-13.9zM258.2 5.7c11 0 18.6 2.5 25.3 7.9l2.6-5.4A42 42 0 00258.6 0c-2.8 0-5.5.1-7.9.4l2.6 5.5 4.9-.2z" />
</svg>