<?xml version="1.0" encoding="UTF-8" standalone="no"?>
<!-- Created with Inkscape (http://www.inkscape.org/) -->

<svg
   xmlns:dc="http://purl.org/dc/elements/1.1/"
   xmlns:cc="http://creativecommons.org/ns#"
   xmlns:rdf="http://www.w3.org/1999/02/22-rdf-syntax-ns#"
   xmlns:svg="http://www.w3.org/2000/svg"
   xmlns="http://www.w3.org/2000/svg"
   xmlns:sodipodi="http://sodipodi.sourceforge.net/DTD/sodipodi-0.dtd"
   xmlns:inkscape="http://www.inkscape.org/namespaces/inkscape"
   width="210mm"
   height="297mm"
   viewBox="0 0 744.09448819 1052.3622047"
   id="svg3610"
   version="1.1"
   inkscape:version="0.91 r13725"
   sodipodi:docname="quasar-play-logo.svg">
  <defs
     id="defs3612" />
  <sodipodi:namedview
     id="base"
     pagecolor="#ffffff"
     bordercolor="#666666"
     borderopacity="1.0"
     inkscape:pageopacity="0.0"
     inkscape:pageshadow="2"
     inkscape:zoom="0.35"
     inkscape:cx="356.73118"
     inkscape:cy="158.01411"
     inkscape:document-units="px"
     inkscape:current-layer="layer1"
     showgrid="false"
     inkscape:window-width="1920"
     inkscape:window-height="1056"
     inkscape:window-x="0"
     inkscape:window-y="24"
     inkscape:window-maximized="1" />
  <metadata
     id="metadata3615">
    <rdf:RDF>
      <cc:Work
         rdf:about="">
        <dc:format>image/svg+xml</dc:format>
        <dc:type
           rdf:resource="http://purl.org/dc/dcmitype/StillImage" />
        <dc:title></dc:title>
      </cc:Work>
    </rdf:RDF>
  </metadata>
  <g
     inkscape:label="Layer 1"
     inkscape:groupmode="layer"
     id="layer1">
    <g
       id="g3809"
       transform="translate(-8.9036268e-7,8.1368945)">
      <g
         transform="translate(-2.6077106e-6,94.285714)"
         id="g3782">
        <g
           id="g4803"
           transform="matrix(0.37179714,0,0,0.37179714,941.11531,830.23437)">
          <circle
             r="244.8795"
             inkscape:export-ydpi="10.031387"
             inkscape:export-xdpi="10.031387"
             style="opacity:1;fill:#ffffff;fill-opacity:1;stroke:none;stroke-width:50;stroke-linecap:square;stroke-linejoin:bevel;stroke-miterlimit:4;stroke-dasharray:none;stroke-opacity:1"
             id="circle8858-1-2"
             cx="-1530.5875"
             cy="-1693.1223" />
          <path
             inkscape:transform-center-y="-407.84388"
             inkscape:transform-center-x="-472.13875"
             inkscape:connector-curvature="0"
             style="fill:#1976d2;fill-opacity:1"
             mask="none"
             clip-path="none"
             d="m -1352.7376,-1795.8185 a 205.36435,205.36435 0 0 0 -31.4702,-41.1425 l -46.3146,26.7398 c -14.4359,-12.3313 -30.8425,-21.7768 -48.3561,-28.0256 -15.8119,16.0246 -28.3731,33.9303 -37.4273,53.4034 51.5552,-3.5087 104.8004,15.1499 154.2312,53.7699 l 29.1482,-16.8288 a 205.36435,205.36435 0 0 0 -19.8112,-47.9162 z"
             id="path8862-5-0" />
          <path
             id="path8864-4-9"
             d="m -1352.7258,-1590.462 a 205.36435,205.36435 0 0 0 19.8954,-47.8252 l -46.3146,-26.7398 c 3.4613,-18.6675 3.438,-37.5987 0.092,-55.8903 -21.7837,-5.6812 -43.5711,-7.6066 -64.9624,-5.7113 28.8162,42.8936 39.28,98.3347 30.5495,160.453 l 29.1484,16.8288 a 205.36435,205.36435 0 0 0 31.5909,-41.1152 z"
             clip-path="none"
             mask="none"
             style="fill:#42a5f5;fill-opacity:1"
             inkscape:connector-curvature="0"
             inkscape:transform-center-x="-633.41191"
             inkscape:transform-center-y="244.13161" />
          <path
             inkscape:transform-center-y="587.21559"
             inkscape:transform-center-x="-107.91124"
             inkscape:connector-curvature="0"
             style="fill:#1976d2;fill-opacity:1"
             mask="none"
             clip-path="none"
             d="m -1530.5637,-1487.7735 a 205.36435,205.36435 0 0 0 51.3655,-6.6826 l 0,-53.4796 c 17.8972,-6.3361 34.2805,-15.822 48.4488,-27.8647 -5.9717,-21.7059 -15.1979,-41.537 -27.5349,-59.1148 -22.739,46.4024 -65.5205,83.1848 -123.6817,106.6832 l 0,33.6575 a 205.36435,205.36435 0 0 0 51.4023,6.801 z"
             id="path8866-7-3" />
          <path
             id="path8868-6-6"
             d="m -1708.4136,-1590.4414 a 205.36435,205.36435 0 0 0 31.4701,41.1425 l 46.3147,-26.7397 c 14.4359,12.3313 30.8425,21.7767 48.3559,28.0254 15.812,-16.0245 28.3732,-33.9302 37.4275,-53.4032 -51.5552,3.5086 -104.8004,-15.1499 -154.2312,-53.7699 l -29.1483,16.8287 a 205.36435,205.36435 0 0 0 19.8113,47.9162 z"
             clip-path="none"
             mask="none"
             style="fill:#42a5f5;fill-opacity:1"
             inkscape:connector-curvature="0"
             inkscape:transform-center-x="472.13876"
             inkscape:transform-center-y="407.8439" />
          <path
             inkscape:transform-center-y="-244.13166"
             inkscape:transform-center-x="633.41193"
             inkscape:connector-curvature="0"
             style="fill:#1976d2;fill-opacity:1"
             mask="none"
             clip-path="none"
             d="m -1708.4255,-1795.7979 a 205.36435,205.36435 0 0 0 -19.8954,47.8252 l 46.3147,26.7398 c -3.4613,18.6675 -3.438,37.5987 -0.092,55.8903 21.7836,5.6812 43.571,7.6066 64.9622,5.7114 -28.8161,-42.8938 -39.2799,-98.3348 -30.5494,-160.4531 l -29.1483,-16.8288 a 205.36435,205.36435 0 0 0 -31.5909,41.1152 z"
             id="path8870-5-0" />
          <path
             id="path8872-6-6"
             d="m -1530.5875,-1898.4865 a 205.36435,205.36435 0 0 0 -51.3656,6.6827 l 0,53.4796 c -17.8971,6.3362 -34.2804,15.8219 -48.4488,27.8648 5.9718,21.7059 15.198,41.5369 27.5349,59.1147 22.7391,-46.4025 65.5204,-83.1849 123.6817,-106.6832 l 1e-4,-33.6576 a 205.36435,205.36435 0 0 0 -51.4023,-6.801 z"
             clip-path="none"
             mask="none"
             style="fill:#42a5f5;fill-opacity:1"
             inkscape:connector-curvature="0"
             inkscape:transform-center-x="107.91122"
             inkscape:transform-center-y="-587.21562" />
          <path
             id="path4375"
             d="m -1473.7602,-1693.0895 -97.8476,56.4582 0,-112.9821 z"
             class="st1"
             style="fill:#ff5722;fill-opacity:1"
             inkscape:connector-curvature="0" />
        </g>
        <g
           id="g4777"
           transform="matrix(0.37179714,0,0,0.37179714,633.49675,976.56435)">
          <g
             transform="matrix(3.113367,0,0,3.113367,2376.5856,-2090.9431)"
             id="g4579-2-2-69-3"
             style="fill:#263238;fill-opacity:1">
            <g
               id="g4445-2-8-9-1"
               transform="translate(12.499948,7.809312)"
               style="fill:#263238;fill-opacity:1">
              <g
                 inkscape:export-ydpi="44.860481"
                 inkscape:export-xdpi="44.860481"
                 inkscape:export-filename="/home/emanuele/Desktop/logo1.png"
                 transform="translate(-712.85583,-503.26814)"
                 id="g4561-6-7-3-4-9"
                 style="fill:#263238;fill-opacity:1">
                <flowRoot
                   xml:space="preserve"
                   id="flowRoot4513-6-6-0-0-4"
                   style="font-style:normal;font-weight:normal;font-size:50.25774765px;line-height:125%;font-family:sans-serif;letter-spacing:0px;word-spacing:0px;fill:#263238;fill-opacity:1;stroke:none;stroke-width:1px;stroke-linecap:butt;stroke-linejoin:miter;stroke-opacity:1"><flowRegion
                     id="flowRegion4515-0-1-8-9-7"><rect
                       id="rect4517-4-8-6-5-8"
                       width="281.41324"
                       height="330.2652"
                       x="-431.78076"
                       y="587.30066"
                       style="fill:#263238;fill-opacity:1" /></flowRegion><flowPara
                     id="flowPara4727"
                     style="font-style:normal;font-variant:normal;font-weight:normal;font-stretch:normal;font-size:22.48369598px;font-family:'Neuropol X';-inkscape-font-specification:'Neuropol X';text-align:end;letter-spacing:5px;word-spacing:0px;text-anchor:end;fill:#263238;fill-opacity:1"><flowSpan
                       style="font-style:normal;font-variant:normal;font-weight:normal;font-stretch:normal;font-size:50.25774765px;font-family:'Neuropol X';-inkscape-font-specification:'Neuropol X';letter-spacing:5px;word-spacing:0px;fill:#263238;fill-opacity:1"
                       id="flowSpan4765">Quasar</flowSpan></flowPara></flowRoot>              </g>
            </g>
          </g>
          <g
             style="fill:#ff5722;fill-opacity:1"
             id="g4747"
             transform="matrix(3.4175093,0,0,3.4175093,2585.1751,-1948.6246)">
            <g
               style="fill:#ff5722;fill-opacity:1"
               transform="translate(12.499948,7.809312)"
               id="g4749">
              <g
                 style="fill:#ff5722;fill-opacity:1"
                 id="g4751"
                 transform="translate(-712.85583,-503.26814)"
                 inkscape:export-filename="/home/emanuele/Desktop/logo1.png"
                 inkscape:export-xdpi="44.860481"
                 inkscape:export-ydpi="44.860481">
                <flowRoot
                   style="font-style:normal;font-weight:normal;font-size:50.25774765px;line-height:125%;font-family:sans-serif;letter-spacing:0px;word-spacing:0px;fill:#ff5722;fill-opacity:1;stroke:none;stroke-width:1px;stroke-linecap:butt;stroke-linejoin:miter;stroke-opacity:1"
                   id="flowRoot4753"
                   xml:space="preserve"><flowRegion
                     id="flowRegion4755"><rect
                       style="fill:#ff5722;fill-opacity:1"
                       y="587.30066"
                       x="-431.78076"
                       height="330.2652"
                       width="281.41324"
                       id="rect4757" /></flowRegion><flowPara
                     style="font-style:normal;font-variant:normal;font-weight:normal;font-stretch:normal;font-size:22.48369598px;font-family:'Neuropol X';-inkscape-font-specification:'Neuropol X';text-align:end;letter-spacing:5px;word-spacing:0px;text-anchor:end;fill:#ff5722;fill-opacity:1"
                     id="flowPara4761">PLAY</flowPara></flowRoot>              </g>
            </g>
          </g>
        </g>
      </g>
      <g
         id="g3705"
         transform="matrix(0.37179714,0,0,0.37179714,754.50517,1370.5644)"
         inkscape:export-filename="/home/emanuele/Desktop/quasar-play.png"
         inkscape:export-xdpi="40"
         inkscape:export-ydpi="40">
        <g
           id="g3707">
          <circle
             cy="-1693.1223"
             cx="-1530.5875"
             id="circle3709"
             style="opacity:1;fill:#ffffff;fill-opacity:1;stroke:none;stroke-width:50;stroke-linecap:square;stroke-linejoin:bevel;stroke-miterlimit:4;stroke-dasharray:none;stroke-opacity:1"
             inkscape:export-xdpi="10.031387"
             inkscape:export-ydpi="10.031387"
             r="244.8795" />
          <path
             id="path3711"
             d="m -1352.7376,-1795.8185 a 205.36435,205.36435 0 0 0 -31.4702,-41.1425 l -46.3146,26.7398 c -14.4359,-12.3313 -30.8425,-21.7768 -48.3561,-28.0256 -15.8119,16.0246 -28.3731,33.9303 -37.4273,53.4034 51.5552,-3.5087 104.8004,15.1499 154.2312,53.7699 l 29.1482,-16.8288 a 205.36435,205.36435 0 0 0 -19.8112,-47.9162 z"
             clip-path="none"
             mask="none"
             style="fill:#1976d2;fill-opacity:1"
             inkscape:connector-curvature="0"
             inkscape:transform-center-x="-472.13875"
             inkscape:transform-center-y="-407.84388" />
          <path
             inkscape:transform-center-y="244.13161"
             inkscape:transform-center-x="-633.41191"
             inkscape:connector-curvature="0"
             style="fill:#42a5f5;fill-opacity:1"
             mask="none"
             clip-path="none"
             d="m -1352.7258,-1590.462 a 205.36435,205.36435 0 0 0 19.8954,-47.8252 l -46.3146,-26.7398 c 3.4613,-18.6675 3.438,-37.5987 0.092,-55.8903 -21.7837,-5.6812 -43.5711,-7.6066 -64.9624,-5.7113 28.8162,42.8936 39.28,98.3347 30.5495,160.453 l 29.1484,16.8288 a 205.36435,205.36435 0 0 0 31.5909,-41.1152 z"
             id="path3713" />
          <path
             id="path3715"
             d="m -1530.5637,-1487.7735 a 205.36435,205.36435 0 0 0 51.3655,-6.6826 l 0,-53.4796 c 17.8972,-6.3361 34.2805,-15.822 48.4488,-27.8647 -5.9717,-21.7059 -15.1979,-41.537 -27.5349,-59.1148 -22.739,46.4024 -65.5205,83.1848 -123.6817,106.6832 l 0,33.6575 a 205.36435,205.36435 0 0 0 51.4023,6.801 z"
             clip-path="none"
             mask="none"
             style="fill:#1976d2;fill-opacity:1"
             inkscape:connector-curvature="0"
             inkscape:transform-center-x="-107.91124"
             inkscape:transform-center-y="587.21559" />
          <path
             inkscape:transform-center-y="407.8439"
             inkscape:transform-center-x="472.13876"
             inkscape:connector-curvature="0"
             style="fill:#42a5f5;fill-opacity:1"
             mask="none"
             clip-path="none"
             d="m -1708.4136,-1590.4414 a 205.36435,205.36435 0 0 0 31.4701,41.1425 l 46.3147,-26.7397 c 14.4359,12.3313 30.8425,21.7767 48.3559,28.0254 15.812,-16.0245 28.3732,-33.9302 37.4275,-53.4032 -51.5552,3.5086 -104.8004,-15.1499 -154.2312,-53.7699 l -29.1483,16.8287 a 205.36435,205.36435 0 0 0 19.8113,47.9162 z"
             id="path3717" />
          <path
             id="path3719"
             d="m -1708.4255,-1795.7979 a 205.36435,205.36435 0 0 0 -19.8954,47.8252 l 46.3147,26.7398 c -3.4613,18.6675 -3.438,37.5987 -0.092,55.8903 21.7836,5.6812 43.571,7.6066 64.9622,5.7114 -28.8161,-42.8938 -39.2799,-98.3348 -30.5494,-160.4531 l -29.1483,-16.8288 a 205.36435,205.36435 0 0 0 -31.5909,41.1152 z"
             clip-path="none"
             mask="none"
             style="fill:#1976d2;fill-opacity:1"
             inkscape:connector-curvature="0"
             inkscape:transform-center-x="633.41193"
             inkscape:transform-center-y="-244.13166" />
          <path
             inkscape:transform-center-y="-587.21562"
             inkscape:transform-center-x="107.91122"
             inkscape:connector-curvature="0"
             style="fill:#42a5f5;fill-opacity:1"
             mask="none"
             clip-path="none"
             d="m -1530.5875,-1898.4865 a 205.36435,205.36435 0 0 0 -51.3656,6.6827 l 0,53.4796 c -17.8971,6.3362 -34.2804,15.8219 -48.4488,27.8648 5.9718,21.7059 15.198,41.5369 27.5349,59.1147 22.7391,-46.4025 65.5204,-83.1849 123.6817,-106.6832 l 1e-4,-33.6576 a 205.36435,205.36435 0 0 0 -51.4023,-6.801 z"
             id="path3721" />
          <path
             inkscape:connector-curvature="0"
             style="fill:#ff5722;fill-opacity:1"
             class="st1"
             d="m -1473.7602,-1693.0895 -97.8476,56.4582 0,-112.9821 z"
             id="path3723" />
        </g>
        <g
           id="g3725">
          <g
             style="fill:#263238;fill-opacity:1"
             id="g3727"
             transform="matrix(3.113367,0,0,3.113367,2376.5856,-2090.9431)">
            <g
               style="fill:#263238;fill-opacity:1"
               transform="translate(12.499948,7.809312)"
               id="g3729">
              <g
                 style="fill:#263238;fill-opacity:1"
                 id="g3731"
                 transform="translate(-712.85583,-503.26814)"
                 inkscape:export-filename="/home/emanuele/Desktop/logo1.png"
                 inkscape:export-xdpi="44.860481"
                 inkscape:export-ydpi="44.860481">
                <flowRoot
                   style="font-style:normal;font-weight:normal;font-size:50.25774765px;line-height:125%;font-family:sans-serif;letter-spacing:0px;word-spacing:0px;fill:#263238;fill-opacity:1;stroke:none;stroke-width:1px;stroke-linecap:butt;stroke-linejoin:miter;stroke-opacity:1"
                   id="flowRoot3733"
                   xml:space="preserve"><flowRegion
                     id="flowRegion3735"><rect
                       style="fill:#263238;fill-opacity:1"
                       y="587.30066"
                       x="-431.78076"
                       height="330.2652"
                       width="281.41324"
                       id="rect3737" /></flowRegion><flowPara
                     style="font-style:normal;font-variant:normal;font-weight:normal;font-stretch:normal;font-size:22.48369598px;font-family:'Neuropol X';-inkscape-font-specification:'Neuropol X';text-align:end;letter-spacing:5px;word-spacing:0px;text-anchor:end;fill:#263238;fill-opacity:1"
                     id="flowPara3739"><flowSpan
                       id="flowSpan3741"
                       style="font-style:normal;font-variant:normal;font-weight:normal;font-stretch:normal;font-size:50.25774765px;font-family:'Neuropol X';-inkscape-font-specification:'Neuropol X';letter-spacing:5px;word-spacing:0px;fill:#263238;fill-opacity:1">Quasar</flowSpan></flowPara></flowRoot>              </g>
            </g>
          </g>
          <g
             transform="matrix(3.4175093,0,0,3.4175093,2585.1751,-1948.6246)"
             id="g3743"
             style="fill:#ff5722;fill-opacity:1">
            <g
               id="g3745"
               transform="translate(12.499948,7.809312)"
               style="fill:#ff5722;fill-opacity:1">
              <g
                 inkscape:export-ydpi="44.860481"
                 inkscape:export-xdpi="44.860481"
                 inkscape:export-filename="/home/emanuele/Desktop/logo1.png"
                 transform="translate(-712.85583,-503.26814)"
                 id="g3747"
                 style="fill:#ff5722;fill-opacity:1">
                <flowRoot
                   xml:space="preserve"
                   id="flowRoot3749"
                   style="font-style:normal;font-weight:normal;font-size:50.25774765px;line-height:125%;font-family:sans-serif;letter-spacing:0px;word-spacing:0px;fill:#ff5722;fill-opacity:1;stroke:none;stroke-width:1px;stroke-linecap:butt;stroke-linejoin:miter;stroke-opacity:1"><flowRegion
                     id="flowRegion3751"><rect
                       id="rect3753"
                       width="281.41324"
                       height="330.2652"
                       x="-431.78076"
                       y="587.30066"
                       style="fill:#ff5722;fill-opacity:1" /></flowRegion><flowPara
                     id="flowPara3755"
                     style="font-style:normal;font-variant:normal;font-weight:normal;font-stretch:normal;font-size:22.48369598px;font-family:'Neuropol X';-inkscape-font-specification:'Neuropol X';text-align:end;letter-spacing:5px;word-spacing:0px;text-anchor:end;fill:#ff5722;fill-opacity:1">PLAY</flowPara></flowRoot>              </g>
            </g>
          </g>
        </g>
      </g>
    </g>
  </g>
</svg>
